<?xml version="1.0" encoding="UTF-8"?>
<svg id="Layer_1" data-name="Layer 1" xmlns="http://www.w3.org/2000/svg" viewBox="0 0 300 300">
  <defs>
    <style>
      .cls-1 {
        fill: #0d153a;
      }

      .cls-2 {
        fill: none;
        stroke: #0d153a;
        stroke-linecap: round;
        stroke-miterlimit: 10;
        stroke-width: 10.91px;
      }
    </style>
  </defs>
  <g>
    <path class="cls-1" d="M147.38,53.84c106.35-18.45,135.54,98.28,135.54,98.28,0,0-3.22-28.67-7.59-41.59-4.76-12.76-11.25-24.94-19.34-36.19-8.32-11.06-18.26-20.97-29.42-29.54-11.29-8.42-23.95-15.05-37.33-20.13-13.37-4.83-27.51-7.46-41.85-8.57V0l-60.59,34.98,60.59,34.98v-16.13Z"/>
    <path class="cls-1" d="M63.02,210.66c-73.28-79.25,8.86-167.19,8.86-167.19,0,0-22.32,18.29-30.79,28.98-8.12,10.92-14.83,22.99-19.87,35.9-4.77,12.99-7.68,26.72-8.81,40.75-.93,14.05.38,28.28,3.39,42.28,3.22,13.85,8.69,27.14,15.54,39.79l-13.51,8.75,62.29,31.85-3.56-69.87-13.54,8.76Z"/>
    <path class="cls-1" d="M287.89,237.59l-2.44-69.92-59.33,37.07,14.24,7.57c-33.63,102.57-150.41,73.54-150.41,73.54,0,0,26.83,10.61,40.29,12.82,13.5,1.79,27.3,1.78,41.03-.09,13.67-2.15,27.09-6.28,39.89-12.11,12.73-6.02,24.53-14.08,35.3-23.52,10.54-9.54,19.5-20.79,27.22-32.93l14.22,7.56Z"/>
  </g>
  <g>
    <path class="cls-2" d="M154.34,102.8l14.33,24.27c.71,1.2,1.89,2.06,3.25,2.36l27.51,6.13c3.75.83,5.23,5.38,2.68,8.26l-18.66,21.13c-.92,1.05-1.37,2.43-1.24,3.82l2.67,28.06c.36,3.82-3.51,6.63-7.03,5.11l-25.86-11.21c-1.28-.56-2.73-.56-4.01,0l-25.86,11.21c-3.52,1.53-7.39-1.28-7.03-5.11l2.67-28.06c.13-1.39-.32-2.77-1.24-3.82l-18.66-21.13c-2.54-2.88-1.06-7.43,2.68-8.26l27.51-6.13c1.36-.3,2.54-1.16,3.25-2.36l14.33-24.27c1.95-3.31,6.74-3.31,8.69,0Z"/>
    <line class="cls-2" x1="150" y1="223.91" x2="150" y2="213.82"/>
    <line class="cls-2" x1="189.24" y1="110.41" x2="196.37" y2="103.27"/>
    <line class="cls-2" x1="84.42" y1="180.62" x2="93.9" y2="177.17"/>
    <line class="cls-2" x1="206.1" y1="177.17" x2="215.58" y2="180.62"/>
    <line class="cls-2" x1="103.63" y1="103.27" x2="110.76" y2="110.41"/>
  </g>
</svg>