<?xml version="1.0" encoding="UTF-8"?>
<svg id="Layer_1" data-name="Layer 1" xmlns="http://www.w3.org/2000/svg" viewBox="0 0 300 300">
  <defs>
    <style>
      .cls-1 {
        fill: #0d153a;
      }
    </style>
  </defs>
  <path class="cls-1" d="M260.07,36.06h-17.3c.34-4.76.56-9.58.66-14.46,3.1-.85,5.38-3.68,5.38-7.05h0c0-4.04-3.27-7.31-7.31-7.31H58.5c-4.04,0-7.31,3.27-7.31,7.31h0c0,3.37,2.28,6.2,5.38,7.05.09,4.88.32,9.7.66,14.46h-17.3c-7.53,0-13.99,4.82-14.71,10.97-3.42,29.24,2.79,53.13,18.46,71.02,12.2,13.93,29.91,23.89,52.9,29.81,9.87,11.82,21.13,20.45,33.27,25.03v23.49c0,17.56-14.24,31.8-31.8,31.8h0c-1.95,0-3.53,1.58-3.53,3.53v14.4h-4.22c-11.79,0-21.35,9.56-21.35,21.35v22.35c0,1.62,1.31,2.93,2.93,2.93h156.27c1.62,0,2.93-1.31,2.93-2.93v-22.35c0-11.79-9.56-21.35-21.35-21.35h-4.22v-14.4c0-1.95-1.58-3.53-3.53-3.53h0c-17.56,0-31.8-14.24-31.8-31.8v-23.49c12.14-4.58,23.4-13.22,33.27-25.03,22.99-5.92,40.69-15.88,52.9-29.81,15.67-17.89,21.88-41.78,18.46-71.02-.72-6.15-7.18-10.97-14.71-10.97ZM214.86,131.72c13.4-22.17,22.96-51.15,26.78-83.69h18.43c1.44,0,2.48.55,2.88.87,2.89,25.51-2.36,46.12-15.63,61.26-7.98,9.11-18.83,16.3-32.46,21.56ZM79.58,33.27h16.53c0,.94,0,1.87,0,2.79.01,2.03.05,4.02.11,5.98.06,2.03.15,4.02.27,5.98,2.29,39.15,14.46,65.62,23.61,92.19.72,2.09,1.42,4.19,2.1,6.29.03.11.07.21.1.32-.1-.11-.21-.23-.31-.34-1.97-2.15-3.88-4.42-5.74-6.81-17.29-22.19-29.95-54.41-35.06-91.64-.27-1.98-.52-3.98-.75-5.98-.23-1.98-.43-3.98-.61-5.98-.08-.93-.17-1.86-.24-2.79ZM52.68,110.16c-13.26-15.14-18.52-35.75-15.63-61.26.4-.32,1.43-.87,2.88-.87h18.43c3.82,32.54,13.38,61.52,26.78,83.69-13.64-5.26-24.48-12.45-32.46-21.56Z"/>
</svg>