<?xml version="1.0" encoding="UTF-8"?>
<svg id="Layer_1" data-name="Layer 1" xmlns="http://www.w3.org/2000/svg" viewBox="0 0 300 300">
  <defs>
    <style>
      .cls-1 {
        fill: #0d153a;
      }

      .cls-2 {
        fill: #fff;
      }

      .cls-3 {
        fill: none;
      }
    </style>
  </defs>
  <path class="cls-2" d="M150,188.94c-1.99,0-3.98-.1-5.92-.26l5.92-3.25,55.31-30.2,2.41,4.46c-11.95,16.25-30.56,27.26-51.8,28.99-1.94.16-3.93.26-5.92.26Z"/>
  <path class="cls-1" d="M257.73,266.01l-37.96-7.71c-2.2-.47-4.4.73-5.24,2.88l-14,36.07c-1.36,3.41-6.08,3.72-7.81.52l-40.21-73.61-2.41-4.4-.1-.21-2.05-3.72c.68-.1,1.36-.16,2.05-.16s1.36.05,2.04.16c1.84.21,3.62.73,5.35,1.57l15.26,7.44c2.36,1.21,4.88,1.73,7.39,1.73,6.03,0,11.85-3.25,14.84-8.91l7.97-15.05c2.46-4.56,6.87-7.76,11.95-8.65l10.64-1.89,2.05,3.77,2.04,3.67,32.82,60.18c1.78,3.2-1.05,7.02-4.61,6.29Z"/>
  <path class="cls-2" d="M92.28,159.69l2.41-4.46,55.31,30.2,5.92,3.25c-1.94.16-3.93.26-5.92.26s-3.98-.1-5.92-.26c-21.23-1.73-39.84-12.74-51.8-28.99Z"/>
  <path class="cls-1" d="M150,215.68c.68,0,1.36.05,2.04.16l-2.04,3.72-.1.21-2.41,4.4-40.21,73.61c-1.73,3.2-6.45,2.88-7.81-.52l-14-36.07c-.79-2.15-3.04-3.36-5.24-2.88l-37.96,7.71c-3.56.73-6.4-3.09-4.61-6.29l32.82-60.18,2.04-3.67,2.04-3.77,10.64,1.89c5.09.89,9.49,4.09,11.95,8.65l7.97,15.05c2.99,5.66,8.81,8.91,14.84,8.91,2.52,0,5.03-.52,7.39-1.73l15.26-7.44c1.73-.84,3.51-1.36,5.35-1.57.68-.1,1.36-.16,2.05-.16Z"/>
  <g>
    <path class="cls-3" d="M221.61,117.33c0,15.83-5.14,30.51-13.89,42.36-11.95,16.25-30.56,27.26-51.8,28.99-1.94.16-3.93.26-5.92.26s-3.98-.1-5.92-.26c-21.23-1.73-39.84-12.74-51.8-28.99-8.76-11.85-13.89-26.53-13.89-42.36,0-39.58,32.08-71.61,71.61-71.61s71.61,32.03,71.61,71.61Z"/>
    <path class="cls-3" d="M262.19,102.81l-11.8-12.21c-2.78-2.83-4.04-6.71-3.46-10.64l2.36-16.83c.73-5.4-.58-10.8-3.77-15.2-3.2-4.4-7.92-7.34-13.26-8.28l-16.72-2.94c-3.93-.68-7.24-3.09-9.12-6.61l-7.97-14.99c-3.62-6.82-10.69-11.06-18.4-11.06-3.2,0-6.29.68-9.17,2.1l-15.26,7.5c-1.73.84-3.67,1.26-5.61,1.26s-3.88-.42-5.61-1.26l-15.26-7.5c-2.88-1.42-5.98-2.1-9.17-2.1-7.71,0-14.78,4.25-18.4,11.06l-7.97,14.99c-1.89,3.51-5.19,5.92-9.07,6.61l-16.78,2.94c-5.35.94-10.07,3.88-13.26,8.28-3.2,4.4-4.51,9.8-3.78,15.2l2.41,16.83c.52,3.93-.73,7.81-3.51,10.64l-11.8,12.21c-3.77,3.93-5.87,9.07-5.87,14.52s2.1,10.59,5.87,14.52l11.8,12.16c2.78,2.88,4.04,6.76,3.51,10.69l-2.41,16.83c-.73,5.4.58,10.8,3.78,15.2,3.2,4.35,7.92,7.34,13.26,8.28l4.77.84,12.01,2.1c3.88.68,7.18,3.04,9.07,6.55l7.97,15.05c3.62,6.81,10.69,11.06,18.4,11.06,3.2,0,6.29-.73,9.17-2.1l15.26-7.5c1.68-.84,3.62-1.26,5.5-1.26h.21c1.89,0,3.83.42,5.5,1.26l15.26,7.5c2.88,1.36,5.98,2.1,9.17,2.1,7.71,0,14.78-4.25,18.4-11.06l7.97-15.05c1.89-3.51,5.19-5.87,9.12-6.55l11.95-2.1,4.77-.84c5.35-.94,10.07-3.93,13.26-8.28,3.2-4.4,4.51-9.8,3.77-15.2l-2.36-16.83c-.58-3.93.68-7.81,3.46-10.69l11.8-12.16c3.77-3.93,5.87-9.07,5.87-14.52s-2.1-10.59-5.87-14.52ZM259.31,129.02l-11.85,12.21c-3.57,3.72-5.29,8.91-4.56,14.05l2.41,16.83c1.26,8.97-4.82,17.35-13.79,18.93l-6.08,1.05-10.64,1.89c-5.09.89-9.49,4.09-11.95,8.65l-7.97,15.05c-2.99,5.66-8.81,8.91-14.84,8.91-2.52,0-5.03-.52-7.39-1.73l-15.26-7.44c-1.73-.84-3.51-1.36-5.35-1.57-.68-.1-1.36-.16-2.04-.16s-1.36.05-2.05.16c-1.83.21-3.62.73-5.35,1.57l-15.26,7.44c-2.36,1.21-4.88,1.73-7.39,1.73-6.03,0-11.85-3.25-14.84-8.91l-7.97-15.05c-2.46-4.56-6.87-7.76-11.95-8.65l-10.64-1.89-6.08-1.05c-8.96-1.57-15.05-9.96-13.79-18.93l2.41-16.83c.73-5.14-.94-10.33-4.56-14.05l-11.85-12.21c-6.29-6.5-6.29-16.88,0-23.38l11.85-12.21c3.62-3.72,5.29-8.91,4.56-14.05l-2.41-16.83c-1.26-8.96,4.82-17.35,13.79-18.92l16.72-2.94c5.09-.89,9.49-4.09,11.95-8.65l7.97-15.05c2.99-5.66,8.81-8.91,14.84-8.91,2.52,0,5.03.52,7.39,1.68l15.26,7.5c2.36,1.1,4.88,1.68,7.39,1.68s5.03-.58,7.39-1.68l15.26-7.5c2.36-1.15,4.88-1.68,7.39-1.68,6.03,0,11.85,3.25,14.84,8.91l7.97,15.05c2.46,4.56,6.87,7.76,11.95,8.65l16.72,2.94c8.97,1.57,15.05,9.96,13.79,18.92l-2.41,16.83c-.73,5.14,1,10.33,4.56,14.05l11.85,12.21c6.29,6.5,6.29,16.88,0,23.38Z"/>
    <path class="cls-1" d="M265.07,134.63c4.56-4.67,7.03-10.8,7.03-17.3s-2.47-12.63-7.03-17.3l-11.8-12.21c-1.89-1.94-2.73-4.61-2.36-7.29l2.36-16.83c.94-6.45-.68-12.9-4.51-18.14-3.83-5.24-9.44-8.75-15.83-9.91l-16.72-2.94c-2.67-.47-4.93-2.1-6.24-4.51l-7.97-14.99c-2.15-4.04-5.35-7.44-9.33-9.75C188.85,1.21,184.5,0,180.04,0,176.21,0,172.54.84,169.08,2.52l-15.26,7.44c-1.15.58-2.52.89-3.83.89s-2.62-.31-3.83-.89l-15.26-7.44C127.46.84,123.79,0,119.96,0,115.5,0,111.15,1.21,107.33,3.46c-3.98,2.31-7.18,5.71-9.33,9.75l-7.97,14.99c-1.31,2.41-3.57,4.04-6.24,4.51l-16.72,2.94c-6.4,1.15-12.01,4.67-15.83,9.91s-5.4,11.69-4.51,18.14l2.36,16.83c.42,2.67-.47,5.35-2.36,7.29l-11.8,12.21c-4.51,4.67-7.02,10.8-7.02,17.3s2.52,12.63,7.02,17.3l11.8,12.22c1.89,1.94,2.78,4.61,2.36,7.29l-2.36,16.83c-.89,6.45.68,12.9,4.51,18.14s9.44,8.75,15.83,9.86l3.41.58,13.32,2.36c2.67.47,4.93,2.15,6.24,4.51l7.97,15.05c2.15,4.04,5.35,7.44,9.33,9.75,3.83,2.25,8.18,3.46,12.64,3.46,3.83,0,7.5-.84,10.96-2.52l15.26-7.5c.42-.21.84-.37,1.31-.47.79-.26,1.68-.37,2.52-.37s1.68.1,2.52.37c.47.1.89.26,1.31.47l15.26,7.5c3.46,1.68,7.13,2.52,10.96,2.52,4.46,0,8.81-1.21,12.63-3.46,3.98-2.31,7.18-5.71,9.33-9.75l7.97-15.05c1.31-2.36,3.56-4.04,6.24-4.51l13.32-2.36,3.41-.58c6.4-1.1,12-4.61,15.83-9.86,3.83-5.24,5.45-11.69,4.51-18.14l-2.36-16.83c-.37-2.67.47-5.35,2.36-7.29l11.8-12.22ZM242.9,155.28l2.41,16.83c1.26,8.97-4.82,17.35-13.79,18.93l-6.08,1.05-10.64,1.89c-5.09.89-9.49,4.09-11.95,8.65l-7.97,15.05c-2.99,5.66-8.81,8.91-14.84,8.91-2.52,0-5.03-.52-7.39-1.73l-15.26-7.44c-1.73-.84-3.51-1.36-5.35-1.57-.68-.1-1.36-.16-2.04-.16s-1.36.05-2.05.16c-1.83.21-3.62.73-5.35,1.57l-15.26,7.44c-2.36,1.21-4.88,1.73-7.39,1.73-6.03,0-11.85-3.25-14.84-8.91l-7.97-15.05c-2.46-4.56-6.87-7.76-11.95-8.65l-10.64-1.89-6.08-1.05c-8.96-1.57-15.05-9.96-13.79-18.93l2.41-16.83c.73-5.14-.94-10.33-4.56-14.05l-11.85-12.21c-6.29-6.5-6.29-16.88,0-23.38l11.85-12.21c3.62-3.72,5.29-8.91,4.56-14.05l-2.41-16.83c-1.26-8.96,4.82-17.35,13.79-18.92l16.72-2.94c5.09-.89,9.49-4.09,11.95-8.65l7.97-15.05c2.99-5.66,8.81-8.91,14.84-8.91,2.52,0,5.03.52,7.39,1.68l15.26,7.5c2.36,1.1,4.88,1.68,7.39,1.68s5.03-.58,7.39-1.68l15.26-7.5c2.36-1.15,4.88-1.68,7.39-1.68,6.03,0,11.85,3.25,14.84,8.91l7.97,15.05c2.46,4.56,6.87,7.76,11.95,8.65l16.72,2.94c8.97,1.57,15.05,9.96,13.79,18.92l-2.41,16.83c-.73,5.14,1,10.33,4.56,14.05l11.85,12.21c6.29,6.5,6.29,16.88,0,23.38l-11.85,12.21c-3.57,3.72-5.29,8.91-4.56,14.05Z"/>
  </g>
  <path class="cls-1" d="M150,45.71c-39.53,0-71.61,32.03-71.61,71.61,0,15.83,5.14,30.51,13.89,42.36,11.95,16.25,30.56,27.26,51.8,28.99,1.94.16,3.93.26,5.92.26s3.98-.1,5.92-.26c21.23-1.73,39.84-12.74,51.8-28.99,8.75-11.85,13.89-26.53,13.89-42.36,0-39.58-32.08-71.61-71.61-71.61ZM189.11,111.69l-14,15.86c-.69.79-1.03,1.82-.93,2.87l2.01,21.06c.27,2.87-2.63,4.98-5.28,3.83l-19.41-8.42c-.96-.42-2.05-.42-3.01,0l-19.41,8.42c-2.64,1.15-5.55-.96-5.27-3.83l2.01-21.06c.1-1.04-.24-2.08-.93-2.87l-14-15.86c-1.91-2.16-.8-5.58,2.02-6.2l20.65-4.6c1.02-.23,1.91-.87,2.44-1.77l10.75-18.22c1.46-2.48,5.06-2.48,6.52,0l10.75,18.22c.53.9,1.41,1.54,2.44,1.77l20.65,4.6c2.81.63,3.92,4.04,2.01,6.2Z"/>
</svg>