<?xml version="1.0" encoding="UTF-8"?>
<svg id="Layer_1" data-name="Layer 1" xmlns="http://www.w3.org/2000/svg" viewBox="0 0 300 300">
  <defs>
    <style>
      .cls-1 {
        fill: #0d153a;
      }
    </style>
  </defs>
  <path class="cls-1" d="M246.33,228.23v10.13h-15.89v-10.13H69.56v10.13h-15.89v-10.13H0v33.92c0,7.97,6.46,14.43,14.43,14.43h271.14c7.97,0,14.43-6.46,14.43-14.43v-33.92h-53.67Z"/>
  <path class="cls-1" d="M285.57,70.89h-70v-21.58c0-14.3-11.58-25.89-25.95-25.89h-79.24c-14.3,0-25.95,11.58-25.95,25.89v21.58H14.43c-7.97,0-14.43,6.46-14.43,14.37v134.24h53.67v-9.87h15.89v9.87h160.89v-9.87h15.89v9.87h53.67V85.25c0-7.91-6.46-14.37-14.43-14.37ZM105.51,43.8h88.99v27.09h-88.99v-27.09ZM197.66,135.94l-17.02,19.3c-.89,1.01-1.27,2.28-1.14,3.54l2.4,25.63c.38,3.54-3.16,6.08-6.39,4.68l-23.67-10.25c-1.14-.51-2.47-.51-3.67,0l-23.67,10.25c-3.23,1.39-6.77-1.14-6.39-4.68l2.41-25.63c.13-1.27-.25-2.53-1.14-3.54l-17.02-19.3c-2.34-2.66-1.01-6.77,2.4-7.53l25.19-5.63c1.27-.25,2.34-1.08,2.98-2.15l13.1-22.22c1.77-3.04,6.2-3.04,7.98,0l13.1,22.22c.63,1.08,1.71,1.9,2.97,2.15l25.19,5.63c3.41.76,4.75,4.87,2.4,7.53Z"/>
</svg>