<?xml version="1.0" encoding="UTF-8"?>
<svg id="Layer_1" data-name="Layer 1" xmlns="http://www.w3.org/2000/svg" xmlns:xlink="http://www.w3.org/1999/xlink" viewBox="0 0 300 300">
  <defs>
    <style>
      .cls-1 {
        fill: #0d153a;
      }

      .cls-2 {
        fill: none;
        stroke: #0d153a;
        stroke-miterlimit: 10;
        stroke-width: 9.64px;
      }

      .cls-3 {
        fill: #fff;
      }

      .cls-4 {
        fill: url(#linear-gradient);
      }
    </style>
    <linearGradient id="linear-gradient" x1="348.79" y1="202.63" x2="-130.06" y2="62.6" gradientUnits="userSpaceOnUse">
      <stop offset=".17" stop-color="#0d153a"/>
      <stop offset=".23" stop-color="#101a45"/>
      <stop offset=".44" stop-color="#1a2965"/>
      <stop offset=".64" stop-color="#21337b"/>
      <stop offset=".83" stop-color="#253989"/>
      <stop offset="1" stop-color="#273c8e"/>
    </linearGradient>
  </defs>
  <g>
    <path class="cls-4" d="M71.49,135.72c2.43,0,4.41-1.97,4.41-4.41v-19.54c0-2.43-1.97-4.41-4.41-4.41s-4.41,1.97-4.41,4.41v19.54c0,2.43,1.97,4.41,4.41,4.41Z"/>
    <path class="cls-1" d="M285.86,113.15c-5.11-4.2-11.55-8.09-19.15-11.56-5.35-2.45-11.31-4.69-17.7-6.67-2.32-.72-4.79.58-5.51,2.91-.72,2.32.58,4.79,2.91,5.51,6.03,1.87,11.63,3.98,16.64,6.27,6.91,3.15,12.7,6.64,17.22,10.35,7.25,5.95,10.92,12.16,10.92,18.45s-3.67,12.5-10.93,18.46c-4.51,3.71-10.31,7.19-17.22,10.35-4.17,1.9-8.75,3.69-13.64,5.3-1.41.47-2.72.88-4,1.27,0,0,0,0,0,0,0,0-.02,0-.03,0-4.31,1.31-8.85,2.5-13.51,3.54-1.39.31-2.79.62-4.23.91,0,0-.02,0-.02,0-5.7,1.16-11.7,2.15-17.84,2.93-1.46.19-2.93.36-4.41.52-4.44.49-8.96.87-13.49,1.15-11.75.72-24.08.72-35.84,0-6.03-.37-12.06-.93-17.9-1.67-6.14-.78-12.14-1.77-17.84-2.93-.01,0-.02,0-.03,0-6.19-1.26-12.15-2.76-17.73-4.45-.01,0-.02,0-.03,0,0,0,0,0,0,0-6.45-1.96-12.38-4.17-17.64-6.58-2.52-1.15-4.92-2.36-7.13-3.59-3.84-2.13-7.23-4.4-10.08-6.75,0,0,0,0-.01,0-1.55-1.27-2.95-2.58-4.18-3.88-.04-.05-.09-.09-.13-.13-.11-.12-.22-.24-.33-.36.14.03.28.07.43.1,2.27.54,4.69,1.07,7.2,1.59,1.29.27,2.64-.06,3.67-.9.05-.04.1-.08.14-.12.02.05.05.09.08.13.03.05.06.1.09.15.14.22.29.44.47.65.25.28.53.52.84.73,1.57,1.05,3.24,2.08,4.96,3.04.83.47,1.69.93,2.57,1.39,2.65,1.37,5.54,2.69,8.62,3.95,2.5,1.01,5.11,1.98,7.74,2.87.5.17,1.01.34,1.48.49,5.36,1.76,11.13,3.33,17.16,4.65,5.89,1.3,12.14,2.4,18.55,3.26,5.99.81,12.21,1.42,18.49,1.81,6.02.39,12.24.59,18.47.59s12.45-.2,18.46-.59c5.59-.35,11.15-.88,16.49-1.55,0,0,.02,0,.03,0h0c.45-.05.9-.11,1.35-.17l.62-.08c6.42-.86,12.66-1.96,18.54-3.26,2.46-.54,4.86-1.11,7.11-1.71,3.93-1.01,7.81-2.17,11.53-3.43,2.63-.89,5.24-1.85,7.75-2.87,4.1-1.67,7.87-3.46,11.18-5.33,11.19-6.26,17.61-13.35,17.61-19.44s-6.42-13.18-17.6-19.44c-3.32-1.87-7.08-3.66-11.2-5.33-2.51-1.01-5.11-1.98-7.73-2.86-.35-.12-.71-.24-1.07-.35-2.32-.73-4.79.57-5.52,2.89-.73,2.32.57,4.79,2.89,5.52.29.09.57.19.87.29,2.47.83,4.91,1.74,7.25,2.68,2.83,1.15,5.46,2.35,7.87,3.6.8.41,1.58.83,2.33,1.26.34.19.66.38.98.56.64.37,1.25.74,1.82,1.1.29.18.57.36.84.54,7.65,4.97,9.45,8.79,9.46,9.56,0,.77-1.81,4.59-9.46,9.56-.27.18-.55.36-.84.54-.58.36-1.18.73-1.82,1.1-.32.19-.65.37-.98.56-3,1.69-6.43,3.32-10.18,4.84-2.34.95-4.78,1.85-7.26,2.69-3.52,1.2-7.2,2.29-10.93,3.25-2.16.57-4.44,1.11-6.79,1.63-5.65,1.25-11.65,2.3-17.8,3.12l-.63.08c-.42.06-.85.11-1.3.17-5.19.66-10.56,1.16-15.97,1.5-11.66.75-24.13.76-35.81,0-6.08-.38-12.09-.97-17.88-1.75-6.17-.83-12.17-1.88-17.83-3.13-5.74-1.26-11.22-2.74-16.33-4.42-.47-.15-.93-.3-1.39-.46-2.47-.83-4.91-1.74-7.25-2.68-3.76-1.53-7.19-3.16-10.2-4.85-.81-.45-1.61-.92-2.38-1.4-.63-.39-1.26-.78-1.85-1.18-.2-.14-.4-.26-.61-.37-.07-.03-.14-.06-.21-.09-.15-.06-.29-.13-.44-.17-.09-.03-.18-.05-.27-.07-.14-.03-.27-.07-.41-.09-.1-.01-.19-.02-.29-.03-.14-.01-.27-.02-.41-.02-.1,0-.2,0-.3.02-.13.01-.27.03-.4.05-.1.02-.2.04-.29.06-.13.03-.26.07-.39.12-.09.03-.19.06-.28.1-.13.06-.26.12-.38.19-.09.05-.17.09-.26.14-.03.02-.05.03-.08.04v-1.97c0-2.43-1.97-4.41-4.41-4.41-2.06,0-3.78,1.41-4.27,3.32-.61-.14-1.21-.28-1.8-.42-.47-.11-.94-.22-1.47-.36l-1.54-.38s-.06-.02-.09-.02c-.45-.12-.89-.24-1.35-.35-1-.27-1.99-.53-2.97-.81-.03,0-.07-.02-.11-.03-.06-.02-.12-.04-.18-.05v-10.01c0-2.43-1.97-4.41-4.41-4.41s-4.41,1.97-4.41,4.41v10.18c-.63.76-1.02,1.75-1.02,2.82v10.91c-1.23.51-2.42,1.04-3.57,1.56-1.9.87-3.73,1.76-5.48,2.68-5.26,2.76-9.84,5.73-13.67,8.88-6.94,5.7-11.42,12.04-13.23,18.62-.6,2.19-.91,4.41-.91,6.64v43.71c0,.26,0,.52.01.78,0,.17.01.35.02.52,0,.08,0,.17.01.25,0,.15.02.29.03.44.01.21.03.42.06.65,0,.02,0,.05,0,.07,0,.08.02.17.03.25.02.22.05.44.08.61l.08.52s.01.06.02.09h0s.01.08.02.12l.05.26c.05.29.11.57.16.81,0,.04.02.08.03.13.02.09.04.18.06.27.09.37.18.74.28,1.09.03.11.07.23.1.34.07.24.14.48.22.72l.03.09c.02.07.05.15.08.22.03.09.06.17.09.26.06.19.13.38.2.57.06.15.12.3.18.45.04.11.09.23.13.34.09.22.18.43.27.64.04.09.08.17.12.25.1.23.21.45.32.68.07.15.14.32.22.47.04.08.08.16.12.23l.07.14s.05.09.07.13c0,.01.01.02.02.03.07.13.14.27.21.4.14.27.29.53.45.8.02.03.04.07.06.1,0,0,0,0,0,.01.16.28.32.55.47.78.1.16.21.33.32.49.01.02.02.03.03.05.08.12.15.24.23.36.18.26.37.52.55.78.05.07.09.13.14.2.08.11.15.22.23.33.02.03.04.06.06.08.15.2.3.39.45.58.1.13.19.25.29.38.11.14.22.29.33.43.02.03.04.05.06.08l.16.19c.14.18.29.35.42.5l.51.59c.06.06.11.13.17.19.2.23.41.46.62.68.24.26.48.51.77.81l.6.6c.25.25.49.49.72.7.49.47,1,.94,1.48,1.36.28.25.56.5.83.72.26.22.53.45.81.68.04.03.08.07.12.1l.06.05c.27.22.55.44.8.64.36.29.72.57,1.1.84.63.47,1.39,1.04,2.23,1.61l.16.11c.26.18.53.36.83.56l.1.07c.33.23.68.45.98.64.99.64,1.88,1.19,2.73,1.7l.79.46c.42.25.84.49,1.29.74.07.04.15.08.23.12.39.22.79.43,1.19.65.21.11.42.23.63.34l.06.03c.14.07.28.15.42.22l.45.23c.3.16.6.31.91.46.14.08.28.15.43.22.29.14.58.29.89.44.33.16.66.32.99.47.08.04.15.07.23.11.51.24,1.02.48,1.55.72l.27.12c.23.1.45.21.65.29l.31.14c.16.07.33.15.48.21.42.18.85.37,1.23.53.36.16.73.31,1.05.44.18.07.36.14.54.22.18.07.35.15.53.22.17.07.34.13.51.2.19.08.38.16.57.23.22.09.44.17.67.26.3.12.61.24.91.35.19.07.39.15.58.22.43.17.88.33,1.33.5l.54.2c.48.17.96.35,1.4.5.27.09.54.19.81.28.09.03.17.06.25.09l.18.06c.27.09.53.18.79.27.41.14.82.28,1.23.41.23.08.45.15.67.22,1.36.44,2.75.88,4.15,1.29.23.07.46.14.69.2,16.94,4.98,36.54,8.11,57.31,9.14.33.02.65.03.98.04.7.03,1.4.06,2.1.09.14,0,.28.01.42.02l2.12.07c1.05.03,2.1.06,3.13.08.05,0,.1,0,.15,0,.18,0,.36,0,.54,0,.83.02,1.65.03,2.49.04h.14c.49,0,.99.01,1.43.01.54,0,1.08,0,1.62,0s1.08,0,1.57,0c.49,0,.99,0,1.47-.01h.14c1-.01,1.98-.03,2.95-.05.01,0,.03,0,.04,0,.05,0,.11,0,.16,0,1.05-.02,2.11-.05,3.18-.08l2.11-.07c.15,0,.31-.01.47-.02.62-.02,1.25-.05,1.87-.08.39-.02.77-.03,1.16-.05,3.38-.17,6.73-.39,10.04-.67.39-.03.77-.06,1.12-.1,18.57-1.63,35.94-4.98,50.95-9.86.24-.08.47-.15.7-.23.57-.19,1.13-.38,1.69-.57.1-.03.2-.07.3-.1l.22-.08c.19-.06.37-.13.55-.19.25-.09.5-.18.75-.27.38-.13.75-.27,1.12-.4l.55-.2c.44-.16.88-.33,1.31-.49.2-.08.4-.16.6-.23.29-.11.58-.23.87-.34.22-.09.45-.17.67-.26.73-.28,1.45-.58,2.11-.86.37-.15.74-.31,1.06-.45.05-.02.1-.04.14-.06.05-.02.11-.05.16-.07.32-.14.65-.28.96-.41.17-.07.33-.15.49-.22l.28-.13c.11-.05.23-.1.34-.15.03-.01.06-.03.09-.04.08-.04.17-.07.25-.11l.28-.13c.19-.08.36-.17.55-.26.62-.29,1.23-.57,1.83-.86.13-.06.26-.12.39-.18.29-.14.59-.29.88-.43.15-.07.29-.14.43-.22.31-.15.61-.31.92-.47l.45-.23c.14-.07.29-.15.43-.22l.03-.02c.11-.06.22-.12.34-.18.51-.27,1.01-.54,1.51-.82.08-.05.16-.09.25-.13.43-.24.85-.48,1.23-.7.28-.16.56-.33.84-.49.85-.5,1.74-1.05,2.68-1.66.12-.08.23-.15.35-.23.02-.01.04-.03.07-.04.2-.13.4-.26.59-.38l.15-.1c.26-.17.52-.35.77-.52l.19-.13c.85-.59,1.63-1.17,2.22-1.61.37-.28.74-.56,1.07-.82.28-.22.55-.44.82-.66l.06-.05s.08-.07.12-.1c0,0,.02-.01.02-.02,0,0,0,0,.01-.01.26-.21.52-.43.74-.62.29-.24.58-.49.81-.7.53-.46,1.03-.93,1.51-1.38.25-.24.5-.48.75-.73l.64-.64c.24-.25.49-.51.72-.76.21-.23.41-.45.62-.68.06-.06.12-.13.17-.19l.49-.57c.15-.17.29-.34.43-.51l.16-.2s.04-.05.06-.08c.12-.15.23-.29.34-.44.09-.12.18-.23.27-.35.15-.19.3-.39.45-.58.03-.04.06-.07.08-.11.08-.11.15-.22.23-.33.05-.06.09-.13.13-.19.19-.27.38-.53.57-.81.08-.12.15-.23.23-.35,0,0,0,0,0,0,.1-.16.21-.32.31-.48.14-.22.28-.45.41-.68.04-.06.08-.13.12-.19.01-.02.02-.04.03-.06.16-.27.31-.53.45-.8.07-.13.14-.26.21-.4,0-.01.01-.02.02-.03.02-.04.05-.09.07-.13l.07-.13s.06-.1.08-.14l.04-.07c.14-.28.27-.56.4-.84,0,0,0-.02.01-.02.08-.18.16-.36.24-.53.04-.1.08-.2.12-.29.13-.31.26-.62.38-.93.03-.08.07-.16.1-.24.08-.2.15-.4.22-.6,0,0,0-.01,0-.02.02-.06.04-.13.06-.19.03-.07.05-.15.08-.22l.04-.1c.08-.24.15-.48.22-.72.17-.57.32-1.15.45-1.72,0-.02.01-.04.02-.06.07-.29.12-.57.17-.83l.05-.29s.01-.07.02-.11h0s.01-.07.02-.1l.07-.46c.03-.21.06-.43.09-.65.02-.13.03-.25.04-.38.02-.2.05-.4.06-.59.01-.15.02-.29.03-.44,0-.09.01-.18.02-.28,0-.16.02-.33.02-.5,0-.26.01-.52.01-.77v-17.49c.06-.03.12-.05.19-.08.09-.04.19-.08.28-.12.03-.01.07-.03.1-.04,0,0,0,0,0,0,0,0,0,0,.01,0,.03-.01.07-.03.1-.04.38-.16.76-.33,1.11-.48.18-.08.36-.16.54-.24l.23-.11c.23-.1.47-.21.7-.31l.27-.12c.94-.43,1.85-.86,2.7-1.28,0,0,.02,0,.03-.01.01,0,.03-.01.04-.02l.48-.24c.14-.07.29-.14.43-.21.13-.06.26-.13.39-.2.29-.14.57-.29.91-.47.31-.16.62-.32.91-.48.7-.37,1.39-.75,2.09-1.13.43-.24.85-.48,1.22-.7.16-.1.33-.19.51-.3.1-.06.19-.11.29-.17.14-.08.29-.17.42-.25.15-.09.31-.18.46-.28l.26-.16c.06-.03.11-.07.17-.11.06-.04.13-.08.21-.13.4-.25.8-.5,1.17-.74.03-.02.06-.04.09-.06.25-.16.5-.32.74-.48l.24-.16s.07-.05.07-.05l.05-.03c.26-.17.52-.35.77-.52l.19-.13c.82-.57,1.59-1.13,2.22-1.61.37-.28.74-.56,1.04-.8.01,0,.02-.02.03-.03h0c.26-.2.51-.4.78-.62.01,0,.02-.02.03-.02l.07-.06s.06-.05.08-.07l.04-.04s.02-.01.02-.02c0,0,0,0,0,0,.24-.19.48-.39.71-.59,0,0,0,0,.01,0h0s.05-.04.07-.06c.12-.1.24-.2.35-.3.01,0,.02-.02.03-.03.13-.12.26-.23.38-.34.27-.24.53-.47.78-.7.21-.2.42-.39.63-.59l.09-.09c.25-.24.5-.48.74-.72l.6-.6s.06-.06.09-.09l.22-.23c.16-.16.31-.33.42-.45,0,0,0,0,.01-.01,0-.01.02-.02.03-.03.06-.06.11-.12.17-.18.16-.17.32-.34.47-.52.05-.05.1-.11.15-.17l.49-.57c.14-.16.28-.33.42-.5l.17-.2h0s.03-.04.05-.06c.09-.12.18-.24.27-.35.27-.35.55-.7.81-1.05.02-.03.05-.06.07-.1.32-.44.64-.89.92-1.31,0,0,0,0,0-.01,0,0,0,0,0,0,.19-.28.37-.58.54-.84,0,0,0,0,0,0,0-.02.02-.03.03-.04.15-.24.3-.48.44-.73.03-.06.07-.12.11-.18l.03-.05c.06-.1.12-.2.17-.3.04-.07.07-.13.11-.2.04-.08.09-.16.13-.24.03-.06.06-.11.09-.17.07-.13.14-.26.21-.4l.06-.11s.02-.04.04-.07c.03-.06.06-.12.09-.17.23-.47.46-.94.65-1.39.21-.48.41-.97.6-1.46.08-.2.15-.4.22-.6.05-.14.1-.29.15-.43l.04-.11s0,0,0,0v-.03c.09-.25.16-.49.23-.73.03-.08.05-.16.07-.24.14-.49.27-.99.38-1.49.07-.29.12-.57.17-.84l.07-.4s.01-.06.02-.09l.07-.46c.05-.29.08-.58.11-.91.03-.25.06-.49.07-.72.02-.19.03-.38.04-.57.01-.21.02-.43.03-.65,0-.26.01-.52.01-.77v-43.71c0-8.93-4.89-17.66-14.14-25.26ZM251.09,181.24c.36-.12.71-.23,1.08-.35,2.87-.95,5.63-1.96,8.29-3.01v34.19s-.07.03-.11.05c-.05.02-.09.04-.14.06-.29.13-.59.25-.95.4-.64.27-1.3.54-1.96.8l-.06.02c-.08.03-.15.06-.23.09,0,0-.01,0-.02,0-.01,0-.03.01-.04.02-.51.2-1.03.4-1.56.6l-.17.07c-.39.15-.78.3-1.16.43l-.57.21c-.46.17-.92.33-1.45.52-.25.09-.51.18-.76.27l-.2.07v-34.42ZM232.91,186.14c.29-.07.59-.13.88-.2,1.34-.3,2.68-.62,4-.94.41-.1.82-.21,1.22-.31.92-.23,1.83-.46,2.74-.71.18-.05.36-.09.54-.14v34.56l-.22.06c-.23.06-.45.13-.68.19l-.51.14s-.08.02-.12.03c-.38.11-.76.21-1.17.32-.39.11-.79.21-1.21.32-.49.13-.99.26-1.48.38l-.11.03c-.73.19-1.47.37-2.23.54-.54.13-1.09.25-1.64.38v-34.67ZM214.72,217.58v-28.17c3.18-.45,6.31-.95,9.38-1.51v34.75l-.19.04c-.39.07-.79.15-1.24.23-.58.11-1.16.21-1.74.31-.01,0-.08.01-.09.02-.01,0-.03,0-.04,0-.43.08-.86.15-1.31.22l-3,.48c-.45.07-.9.14-1.4.21-.12.02-.24.04-.36.05v-6.63ZM196.54,222.65v-31.28c.09,0,.17-.02.26-.02.83-.06,1.66-.14,2.48-.21.73-.06,1.46-.12,2.19-.19.85-.08,1.69-.17,2.53-.25.64-.06,1.28-.12,1.91-.19v34.83c-2.14.24-4.28.46-6.4.65-.43.04-.85.08-1.28.11-.06,0-.12,0-.18.01-.51.04-1.01.09-1.52.12v-3.59ZM178.35,192.18c3.14-.04,6.27-.14,9.38-.28v34.88c-.83.04-1.66.08-2.48.11l-2.07.07c-1.01.03-2.03.06-3.08.08-.58.01-1.17.02-1.75.03v-34.89ZM160.16,191.9c3.11.14,6.24.23,9.38.28v34.89c-.59,0-1.18-.02-1.78-.03-1.02-.02-2.04-.05-3.03-.08l-2.08-.07c-.83-.03-1.66-.07-2.49-.11v-34.88ZM141.98,190.51c3.1.34,6.23.62,9.38.86v34.87c-.51-.04-1.01-.08-1.52-.12-.05,0-.11,0-.16-.01-.43-.03-.86-.07-1.34-.12-2.09-.18-4.22-.4-6.35-.64v-34.84ZM123.79,187.9c3.07.55,6.2,1.06,9.38,1.51v34.48c-.83-.01-1.66-.03-2.48-.05l-2.31-.37h0c-.45-.07-.89-.15-1.33-.23-.01,0-.08-.01-.09-.02-.58-.1-1.17-.2-1.8-.32-.4-.07-.79-.14-1.18-.22l-.19-.04v-34.75ZM105.61,183.84c3.05.82,6.18,1.59,9.37,2.29v34.67c-.55-.13-1.1-.25-1.65-.38-.74-.17-1.48-.35-2.22-.54l-.17-.04c-.48-.12-.96-.24-1.45-.37-.4-.1-.8-.21-1.21-.32-.38-.1-.77-.2-1.14-.31-.04-.01-.08-.02-.12-.03l-.51-.14c-.23-.07-.45-.13-.65-.18l-.25-.07v-34.57ZM87.42,177.88c2.98,1.18,6.11,2.3,9.38,3.36v34.42l-.18-.06c-.26-.09-.52-.18-.84-.29-.47-.16-.93-.33-1.39-.5l-.56-.2c-.39-.14-.78-.29-1.17-.44-.69-.26-1.38-.53-2.08-.81-.66-.26-1.32-.53-2.02-.82-.28-.11-.56-.23-.83-.35l-.1-.04s-.09-.04-.13-.05c-.02,0-.04-.02-.06-.03v-34.18ZM69.23,168.84c1.34.85,2.74,1.68,4.19,2.48,1.64.92,3.38,1.82,5.19,2.69v33.8c-.36-.2-.73-.39-1.08-.59-.37-.21-.73-.41-1.14-.65l-.77-.45s-.12-.07-.15-.09c-.06-.04-.12-.07-.18-.11-.13-.08-.26-.16-.39-.24l-.49-.3s-.04-.03-.07-.04c-.06-.04-.12-.08-.18-.11-.27-.16-.53-.33-.79-.5-.07-.05-.14-.09-.22-.14-.25-.16-.5-.32-.76-.5l-.23-.15c-.21-.14-.42-.28-.63-.42l-.19-.13c-.7-.48-1.37-.98-1.93-1.4-.06-.05-.13-.1-.19-.14v-33ZM66.55,210.78c.25.17.51.35.74.5l.08.05s.08.05.09.06c0,0,0,0,.01,0,0,0,.02.01.02.01l.19.13c.25.16.49.32.74.48.43.29.87.56,1.28.81.12.08.24.15.38.24l.24.15c.15.09.3.18.45.27.14.09.28.17.43.26l.12.07c.22.13.45.27.63.37.42.25.84.49,1.29.74.68.38,1.37.76,2.05,1.11.31.16.62.32.99.52.22.12.45.23.67.34-1.64-.42-3.25-.86-4.84-1.32-2.18-.63-4.31-1.3-6.37-2-2.46-.83-4.9-1.73-7.25-2.68-3.77-1.53-7.2-3.16-10.2-4.85-4.03-2.25-6.88-4.35-8.87-6.13-3.31-2.97-4.23-5.08-4.24-5.63,0-.87,2.3-5.62,12.7-11.53,0,.05,0,.1,0,.14,0,.21.02.42.03.63,0,.19.02.38.04.57.01.21.03.42.06.65,0,.05.01.11.02.16.03.28.06.55.11.82l.07.46s.01.06.02.09l.07.38c.05.29.11.57.16.82.12.55.25,1.05.39,1.54.02.08.05.16.07.24,0,.01,0,.02.01.03.07.23.14.46.22.74l.03.09c.05.15.1.29.15.44.07.2.14.41.22.61.18.49.38.98.58,1.43,0,0,0,0,0,.01,0,0,0,0,0,0,.2.46.42.93.65,1.39.03.06.06.12.09.18.02.04.04.07.06.11l.03.06c.06.11.12.22.17.33.04.08.08.16.12.23.04.08.09.16.13.24.04.07.07.13.11.2.06.1.12.2.17.3l.03.05c.17.31.36.61.53.88,0,.01.01.02.02.03.18.3.37.6.56.87,0,0,.01.01.02.02,0,0,0,.01.01.02.3.44.6.88.92,1.31.02.02.03.04.05.07.25.33.51.66.76.99.11.15.22.3.34.44.02.02.03.04.05.06,0,0,0,0,0,0l.16.2c.14.17.29.34.41.49l.03.04s0,0,0,0l.47.55c.05.06.1.11.15.17.22.25.44.49.63.7.15.17.31.33.47.5l.22.23s.06.06.09.09l.62.62c.25.25.51.51.72.7l.09.09c.21.2.42.4.63.59.26.23.51.46.74.67.25.22.5.44.73.64.02.02.05.04.07.06.02.02.05.04.07.06h0c.24.21.49.42.73.61l.05.04.06.05c.31.26.63.51.9.72.36.29.72.57,1.1.84.64.48,1.4,1.04,2.23,1.61l.18.13ZM56.7,158.66c.11.12.21.23.32.35.05.05.09.1.14.14,1,1.06,2.1,2.11,3.27,3.14v30.67c-.08-.12-.17-.24-.26-.37,0,0,0-.01-.01-.02-.11-.16-.21-.32-.31-.48-.04-.06-.08-.13-.12-.2-.11-.17-.22-.35-.32-.53-.01-.02-.03-.05-.04-.07l-.11-.19c-.05-.09-.07-.13-.12-.22l-.06-.11s-.03-.05-.04-.08c-.08-.14-.15-.29-.23-.43l-.08-.16s-.02-.04-.03-.06c-.15-.31-.3-.63-.44-.95-.15-.36-.3-.71-.44-1.07-.01-.03-.02-.06-.04-.1-.02-.05-.04-.1-.05-.15-.02-.06-.04-.13-.07-.19-.03-.08-.06-.17-.09-.26l-.02-.06c-.05-.15-.1-.3-.14-.46-.02-.08-.04-.16-.07-.23,0,0,0-.02,0-.02-.09-.32-.17-.64-.25-1-.03-.14-.06-.27-.08-.43l-.12-.73s0-.05-.01-.08c-.02-.13-.03-.27-.05-.43,0,0,0-.02,0-.02,0-.05-.01-.1-.02-.15,0-.03,0-.07-.01-.09,0-.12-.01-.24-.03-.35,0-.05,0-.1-.01-.15,0-.03,0-.07,0-.1,0-.13-.01-.27-.02-.4,0-.17,0-.34,0-.5v-23.46ZM23.56,248.72c-2.44-3.54-3.72-7.16-3.72-10.73v-23.48c1.14,1.24,2.37,2.47,3.72,3.66v30.55ZM41.75,263.67c-3.53-1.93-6.66-3.95-9.38-6.03v-32.94c2.87,1.81,5.99,3.54,9.38,5.19v33.78ZM59.93,271.53l-.12-.04c-.28-.1-.57-.19-.9-.31-.47-.16-.94-.33-1.41-.5l-.55-.2c-.39-.14-.78-.29-1.17-.44-.69-.26-1.38-.53-2.08-.81-.66-.26-1.32-.53-2.01-.82-.32-.13-.63-.26-.97-.41-.05-.02-.11-.05-.16-.07v-34.18c2.98,1.18,6.11,2.3,9.38,3.36v34.42ZM78.12,276.67c-.55-.13-1.1-.25-1.65-.38-.74-.17-1.48-.35-2.22-.54l-.24-.06c-.45-.11-.9-.23-1.37-.35-.41-.11-.8-.21-1.21-.32-.38-.1-.77-.2-1.19-.32l-1.48-.41v-34.57c3.04.82,6.17,1.59,9.37,2.29v34.67ZM96.3,280.08c-.14-.02-.27-.04-.42-.06-.44-.06-.89-.13-1.35-.2l-1.14-.17c-1.1-.18-2.18-.35-3.29-.55-.58-.1-1.16-.2-1.81-.32-.45-.08-.91-.16-1.37-.25v-34.75c3.07.55,6.2,1.06,9.38,1.51v34.81ZM114.49,282.11h-.05c-.49-.04-.98-.08-1.47-.12-.05,0-.11,0-.17-.01-.43-.03-.86-.07-1.34-.12-2.09-.18-4.22-.4-6.35-.64v-34.84c3.1.34,6.23.62,9.38.86v34.87ZM132.68,282.94c-.59,0-1.18-.01-1.78-.03-.31,0-.62-.01-.92-.02-.58-.01-1.17-.03-1.75-.05-.12,0-.24,0-.35-.01l-2.08-.07c-.82-.03-1.66-.07-2.49-.11v-34.88c3.11.14,6.24.23,9.38.28v34.89ZM150.86,282.65c-.83.04-1.66.08-2.48.11l-2.07.07c-1,.03-2.01.06-3.04.08-.24,0-.49,0-.73.01-.35,0-.7.01-1.05.02v-34.89c3.14-.04,6.27-.14,9.38-.28v34.88ZM169.05,281.21c-2.13.24-4.27.46-6.4.65-.43.04-.85.08-1.28.11-.06,0-.13,0-.19.01-.49.04-.97.08-1.46.12h-.05s0-34.86,0-34.86c3.14-.24,6.28-.52,9.38-.86v34.84ZM155,238.73c-11.77.72-24.07.72-35.84,0-6.03-.37-12.05-.93-17.9-1.67-6.14-.78-12.14-1.77-17.84-2.93,0,0-.02,0-.03,0-6.2-1.26-12.16-2.76-17.73-4.45-.01,0-.02,0-.03,0,0,0,0,0,0,0-6.44-1.96-12.38-4.17-17.64-6.57-6.91-3.15-12.7-6.64-17.22-10.35-7.25-5.95-10.92-12.16-10.92-18.46s3.67-12.5,10.92-18.45c4.49-3.7,10.25-7.16,17.13-10.31v7.27c-1.34.66-2.64,1.35-3.89,2.05-11.19,6.27-17.61,13.36-17.61,19.45s6.42,13.18,17.6,19.44c3.31,1.87,7.08,3.66,11.2,5.33,2.51,1.02,5.12,1.98,7.73,2.86,5.79,1.97,12.07,3.7,18.65,5.14,5.89,1.3,12.13,2.4,18.55,3.26,5.98.81,12.2,1.42,18.49,1.81,3.73.24,7.52.41,11.27.5.07.01.14.02.21.03.21.03.41.06.62.09.25.04.5.08.73.11.41.06.82.12,1.18.17.31.05.63.1.88.13,1.11.16,2.22.31,3.4.46h.11c.11.03.22.04.33.05.57.07,1.14.14,1.71.21l.22.03c2.78.33,5.58.62,8.25.85.53.05,1.06.1,1.59.14.02,0,.05,0,.08,0,.53.05,1.07.09,1.6.13.49.04.97.07,1.46.11.21.02.43.03.64.05h.09s.09.01.14.02c.05,0,.11,0,.16.01.73.05,1.47.1,2.19.14h.15c.52.04,1.04.08,1.57.11l.36.02c.19.01.38.02.58.03l1.87.09c.77.04,1.55.07,2.34.1l2.12.07c1.05.03,2.1.06,3.13.08,1.05.03,2.11.04,3.17.05.54,0,1.09.01,1.57.01.54,0,1.08,0,1.63,0s1.08,0,1.57,0c.54,0,1.08,0,1.61-.01,1.07-.01,2.12-.02,3.15-.05.39,0,.79-.02,1.19-.03-2.81.46-5.67.87-8.56,1.24-5.85.74-11.87,1.3-17.9,1.67ZM187.24,278.52c-.46.09-.92.17-1.43.26-.58.11-1.16.21-1.77.31-1.08.19-2.16.37-3.22.54l-1.18.18c-.44.07-.89.14-1.4.21-.12.02-.24.04-.36.05v-34.81c3.18-.45,6.31-.95,9.38-1.51v34.75ZM205.42,274.28l-1.53.43c-.38.11-.76.21-1.16.31-.39.11-.79.21-1.22.32-.46.12-.92.24-1.39.36l-.21.05c-.73.19-1.47.37-2.24.55-.54.13-1.09.25-1.63.38v-34.67c3.2-.71,6.33-1.47,9.37-2.29v34.57ZM223.61,267.93c-.07.03-.13.06-.21.09-.31.13-.62.27-.98.41-.64.27-1.3.54-1.98.8-.68.27-1.37.53-2.07.8-.38.15-.78.29-1.16.43l-.56.2c-.47.17-.93.34-1.46.52-.27.1-.54.19-.81.28l-.15.05v-34.42c3.26-1.06,6.4-2.18,9.38-3.36v34.18ZM232.42,263.67v-33.72c.51-.11,1.02-.22,1.51-.33.89-.2,1.78-.41,2.65-.62.8-.19,1.59-.38,2.37-.58l.11-.03c.53-.13,1.07-.27,1.57-.4.4-.11.8-.21,1.18-.31v29.95c-2.72,2.08-5.85,4.1-9.38,6.03ZM250.61,248.72v-23.62c.11-.03.22-.07.33-.1.51-.16,1.03-.33,1.47-.49.5-.16.99-.33,1.48-.5l.27-.09c.06-.02.11-.04.17-.06v14.13c0,3.57-1.28,7.18-3.72,10.73ZM278.66,201.84c-.06.05-.12.1-.19.15-.57.42-1.24.92-1.93,1.4l-.19.13c-.21.14-.41.28-.66.44l-.35.23c-.2.13-.4.26-.6.39-.02.01-.03.02-.05.03-.38.25-.77.49-1.16.73-.02.01-.04.03-.07.04,0,0-.06.04-.07.04l-.41.26c-.13.08-.26.16-.4.24-.06.04-.18.11-.24.15-.03.02-.12.07-.15.09-.23.14-.47.28-.75.44-.36.21-.72.42-1.07.61-.36.2-.73.4-1.1.6v-33.8c3.39-1.65,6.51-3.38,9.38-5.19v33.01ZM291.19,182.12c0,.17,0,.34-.01.5,0,.13,0,.26-.02.39,0,.04,0,.08,0,.12,0,.04,0,.09,0,.13-.02.12-.02.24-.03.37,0,.03,0,.07-.01.1,0,.05-.01.1-.02.16,0,.02,0,.04,0,.06-.01.13-.03.27-.05.4,0,.03,0,.05-.01.08l-.13.75c-.02.14-.05.27-.09.45-.07.32-.15.64-.23.93,0,0,0,.03-.01.05-.03.08-.05.16-.07.24-.04.14-.08.28-.12.41l-.04.13c-.03.08-.05.16-.08.23-.02.06-.04.11-.06.17-.02.06-.04.11-.06.17-.01.03-.03.06-.04.1-.13.35-.27.7-.43,1.05,0,.02-.01.03-.02.05-.07.17-.15.33-.23.49-.07.14-.13.29-.2.43,0,.01-.02.03-.02.04l-.1.19c-.07.14-.15.29-.23.43-.01.03-.03.05-.04.08l-.04.08c-.05.08-.08.13-.13.22l-.13.22s-.03.05-.04.07c-.1.18-.21.36-.34.57-.13.21-.26.42-.38.6-.01.02-.02.04-.04.06-.08.12-.17.24-.25.36v-30.66c1.35-1.2,2.58-2.42,3.72-3.66v23.48Z"/>
  </g>
  <path class="cls-2" d="M234.1,38.95c-4.78-3.93-10.83-7.56-17.93-10.8-5.4-2.46-11.41-4.71-17.93-6.69-5.62-1.7-11.61-3.21-17.92-4.5-5.73-1.17-11.72-2.16-17.93-2.94-5.8-.74-11.79-1.3-17.93-1.67-5.85-.36-11.84-.55-17.93-.55s-12.08.18-17.93.55c-6.15.37-12.13.93-17.93,1.67-6.21.79-12.2,1.78-17.93,2.94-6.32,1.29-12.31,2.8-17.92,4.5-6.52,1.98-12.53,4.22-17.93,6.69-7.1,3.24-13.15,6.87-17.93,10.8-7.91,6.5-12.36,13.81-12.36,21.55s4.45,15.06,12.36,21.55c4.78,3.93,10.83,7.56,17.93,10.8,5.4,2.46,11.41,4.7,17.93,6.69,5.62,1.7,11.61,3.21,17.92,4.5,2.4.49,4.86.95,7.35,1.37,3.45.59,6.98,1.12,10.58,1.57,5.8.74,11.79,1.3,17.93,1.67,2.05.12,4.12.23,6.21.31h0c3.85.15,7.76.23,11.71.23,6.09,0,12.08-.18,17.93-.54,6.15-.37,12.13-.94,17.93-1.67,6.21-.79,12.2-1.78,17.93-2.94,2.23-.45,4.41-.94,6.55-1.45,3.94-.93,7.73-1.95,11.37-3.05,6.52-1.98,12.53-4.22,17.93-6.69,1.38-.63,2.71-1.27,4.01-1.93,5.39-2.73,10.07-5.7,13.92-8.87,7.91-6.5,12.36-13.82,12.36-21.55s-4.45-15.05-12.36-21.55ZM216.17,75.88c-3.03,1.7-6.54,3.39-10.54,5.02-2.37.96-4.84,1.88-7.39,2.74-4.05,1.38-8.32,2.62-12.78,3.73-1.69.43-3.41.83-5.15,1.21-5.72,1.26-11.72,2.32-17.93,3.15-5.81.78-11.8,1.37-17.93,1.76-5.87.38-11.86.57-17.93.57-4.44,0-8.83-.1-13.16-.3-1.6-.08-3.19-.17-4.77-.27-6.13-.39-12.12-.97-17.93-1.76-6.21-.83-12.21-1.88-17.93-3.15-6.34-1.39-12.33-3.04-17.92-4.94-2.55-.86-5.02-1.78-7.39-2.74-4-1.63-7.51-3.31-10.54-5.02-10.34-5.78-15.14-11.67-15.14-15.38s4.8-9.59,15.14-15.38c3.03-1.7,6.54-3.39,10.54-5.02,2.37-.96,4.84-1.88,7.39-2.74,5.59-1.89,11.59-3.54,17.92-4.93,5.72-1.27,11.72-2.32,17.93-3.15,5.81-.78,11.8-1.37,17.93-1.76,5.87-.37,11.86-.56,17.93-.56s12.06.19,17.93.56c6.13.39,12.12.97,17.93,1.76,6.21.83,12.21,1.88,17.93,3.15,6.33,1.39,12.33,3.04,17.92,4.93,2.55.86,5.02,1.78,7.39,2.74,4,1.63,7.51,3.31,10.54,5.02,10.34,5.79,15.14,11.67,15.14,15.38s-4.8,9.59-15.14,15.38Z"/>
  <path class="cls-3" d="M126.06,159.51c-.84,0-1.69,0-2.52-.01h-1.22c-.24-.01-.47-.01-.69-.02l-1.11-.02c-.93-.02-1.85-.04-2.77-.06-.91-.02-1.82-.05-2.73-.08h-.16c-.34-.02-.68-.04-1.02-.05-.14,0-.28,0-.42-.02-.69-.02-1.36-.06-2.05-.09-1.25-.06-2.52-.13-3.77-.21l-2.31-.15c-.83-.06-1.61-.11-2.39-.17l-.24-.02c-3.43-.27-6.94-.6-10.39-1l-1.44-.17c-.59-.07-1.15-.14-1.71-.21-.93-.12-1.88-.24-2.81-.37l-1.39-.2s-.07-.01-.11-.02h-.05c-.57-.09-1.13-.17-1.7-.26-.1-.01-.2-.03-.3-.04-1.61-.24-3.2-.5-4.77-.77l-.21-.04c-.1-.02-.2-.03-.3-.06-.25-.04-.5-.09-.76-.13l-.09-.02c-.3-.05-.6-.1-.9-.16-.21-.04-.41-.07-.61-.11l-1.95-.37c-.62-.12-1.24-.24-1.86-.36l-.17-.03s-.07-.01-.11-.02c-.11-.02-.22-.05-.33-.07-.03,0-.06-.01-.09-.02-2.51-.52-4.93-1.05-7.2-1.59-.55-.13-1.08-.26-1.61-.4l-1.41-.35c-.07-.02-.15-.03-.22-.05h0c-.46-.12-.92-.24-1.38-.36-.01,0-.08-.02-.09-.02-1.01-.27-2.02-.54-3.02-.82l-.08-.02c-1.17-.33-2.28-.66-3.38-.99-.07-.02-.16-.05-.24-.07l-.97-.3c-.28-.09-.55-.17-.82-.26l-.52-.16c-.17-.05-.34-.11-.51-.16l-1.56-.51c-.09-.03-.24-.08-.38-.13l-.45-.15c-.38-.13-.72-.25-1.06-.36l-.67-.23c-.4-.14-.79-.28-1.18-.42-.19-.06-.37-.13-.56-.2l-.52-.19c-.28-.1-.56-.2-.83-.31l-.29-.11c-.76-.29-1.48-.57-2.2-.85-.71-.28-1.43-.58-2.14-.87-.31-.13-.68-.28-1.05-.44-.39-.16-.82-.35-1.24-.53-.15-.07-.32-.14-.49-.22l-.3-.13c-.06-.03-.13-.06-.19-.09l-.72-.33s0,0-.01,0c-.04-.02-.08-.03-.11-.05-.65-.3-1.3-.6-1.93-.91-.16-.07-.31-.15-.47-.22l-.2-.1s-.06-.03-.09-.04l-.1-.05c-.11-.05-.22-.1-.32-.16l-.41-.2c-.13-.06-.28-.14-.44-.22-.31-.15-.61-.31-.91-.46l-.94-.49c-.34-.18-.65-.34-.95-.51-.21-.11-.47-.25-.73-.4l-.08-.05c-.13-.07-.26-.14-.39-.21l-.49-.28c-.22-.12-.44-.25-.65-.38l-.11-.06c-.09-.05-.17-.1-.25-.15-.28-.16-.54-.32-.8-.48-.3-.17-.6-.35-.9-.54-.2-.12-.4-.25-.6-.37l-.18-.11c-.23-.15-.48-.31-.73-.47-.29-.18-.63-.41-.97-.63l-.1-.07c-.29-.19-.53-.35-.76-.52l-.71-.5c-.52-.37-1.03-.74-1.53-1.11l-.16-.12c-.18-.14-.36-.27-.54-.41-.18-.13-.41-.31-.63-.48l-.17-.14c-.15-.12-.32-.26-.5-.4l-.17-.14c-.05-.04-.1-.08-.15-.13-.03-.02-.06-.05-.09-.07-.08-.06-.15-.12-.22-.18-.16-.13-.33-.27-.49-.41-.28-.23-.55-.47-.81-.71-.14-.12-.3-.26-.47-.42-.17-.15-.33-.3-.49-.45-.17-.15-.33-.31-.49-.46-.26-.25-.51-.49-.75-.73l-.59-.59s-.04-.05-.07-.07c-.45-.46-.89-.94-1.31-1.41-.05-.05-.1-.1-.14-.15l-.23-.28s-.06-.07-.09-.11c-.09-.11-.16-.19-.23-.26-.14-.16-.27-.33-.41-.49l-.16-.19c-.19-.23-.32-.4-.46-.58l-.15-.2c-.14-.18-.26-.34-.38-.5-.05-.06-.1-.13-.15-.19-.02-.03-.04-.05-.06-.08-.32-.43-.62-.87-.92-1.31-.19-.29-.37-.57-.54-.84-.2-.32-.39-.63-.57-.95-.16-.27-.31-.53-.45-.8-.1-.19-.2-.38-.3-.57l-.07-.14s-.04-.08-.07-.12l-.04-.07c-.23-.47-.46-.94-.66-1.42-.2-.46-.4-.94-.58-1.43-.08-.2-.15-.4-.22-.6-.06-.16-.11-.32-.16-.48-.01-.03-.03-.1-.06-.17-.07-.21-.14-.43-.2-.65-.02-.08-.05-.15-.07-.23-.14-.5-.27-1-.39-1.55-.06-.25-.11-.54-.16-.83l-.06-.34s-.01-.08-.02-.12l-.08-.5c-.04-.22-.07-.49-.1-.76,0-.06-.02-.13-.02-.19-.03-.21-.05-.42-.06-.63-.02-.19-.03-.38-.04-.58-.01-.21-.02-.42-.03-.63,0-.31-.01-.54-.01-.78,0-2.43,1.97-4.41,4.41-4.41s4.41,1.97,4.41,4.4h0c0,.16,0,.32,0,.47,0,.16,0,.29.02.42,0,.05,0,.09,0,.14,0,.04,0,.09.01.13.01.12.02.24.03.36,0,.03,0,.07.01.11,0,.03,0,.05,0,.08,0,.03,0,.06.01.1.02.14.03.29.05.43l.13.78c.03.19.06.32.09.45.08.36.16.68.25,1,0,0,0,0,0,.01.03.08.05.17.08.25.03.12.07.23.1.34h0s.02.07.04.11c.04.14.07.22.1.3.02.06.05.13.07.19.02.05.04.1.06.15.01.03.02.06.04.09.13.36.28.71.43,1.07.14.34.29.64.44.94.01.02.03.05.04.07l.08.16c.07.14.15.28.22.42.02.03.03.06.05.08.08.15.16.3.26.45.03.04.05.09.08.13.1.18.21.36.32.54,0,.01.05.07.05.09.13.21.26.42.4.62.21.3.43.62.66.94.02.03.04.06.07.09.05.06.1.13.14.19.09.13.19.26.29.39l.16.21c.1.12.19.25.3.38l.14.17c.1.13.21.25.32.38.03.03.05.06.08.09.1.11.17.19.23.27l.12.14s.06.06.08.09c.36.41.73.81,1.11,1.2l.56.56c.19.2.38.38.57.56.14.13.24.23.34.32.05.04.1.09.14.13.12.11.24.22.36.33.04.03.08.07.11.11.1.09.19.18.29.26.24.21.43.38.63.55.03.03.06.05.1.08.1.08.2.17.3.25.05.04.09.07.13.11l.18.14c.07.06.14.11.2.17l.74.59c.15.12.3.23.44.34l.65.49c.42.31.87.64,1.32.96l.75.53c.17.12.33.23.49.33l.12.08s.05.04.07.04c.25.17.51.34.78.51.26.17.46.3.65.42l.22.14c.16.1.32.2.48.3.06.03.11.07.17.11.18.12.37.23.56.34.06.03.11.07.17.1.23.14.46.28.7.42.04.02.1.06.13.08l.2.12c.17.1.31.18.45.26.03.02.06.04.09.05l.58.33c.06.03.12.06.17.09l.15.08c.21.12.43.24.65.35.32.18.58.31.83.45l.92.48c.26.14.54.28.81.41.07.03.14.07.2.11l.59.29s.09.04.14.07l.52.25c.09.04.17.09.26.13.04.02.07.03.11.05.59.28,1.19.57,1.79.84.04.02.07.03.11.05,0,0,0,0,0,0l.88.4s.1.05.15.07l.58.26c.4.17.78.34,1.15.5.34.15.65.28.97.41.7.29,1.36.56,2.02.82.7.28,1.39.54,2.08.81l.29.11c.22.08.44.17.66.24.02,0,.05.02.07.03l.54.2c.13.05.27.1.41.15.06.02.13.04.19.07.31.12.62.23.94.34l.71.25c.31.11.62.22.93.32l.52.17c.06.02.12.04.19.06l1.66.55c.1.03.21.07.31.1.02,0,.05.01.07.02l2.32.72s.08.02.11.04c1.1.33,2.15.64,3.21.94.04.01.08.02.11.03.98.27,1.97.54,2.97.81.46.12.9.23,1.35.35.03,0,.06.01.09.02l1.54.38c.53.14,1,.25,1.47.36,2.19.52,4.51,1.03,6.91,1.53.18.03.37.07.55.11l.12.02c.59.12,1.18.24,1.78.35l2.01.38c.2.04.32.06.45.08.03,0,.08.01.11.02.22.04.43.08.64.11.04,0,.07.01.11.02l.14.03c.27.05.53.09.79.14.08.01.16.03.24.05,0,0,.01,0,.02,0,.02,0,.11.02.13.02,1.54.26,3.1.51,4.67.75.01,0,.02,0,.04,0,.06,0,.13.02.18.02.54.09,1.09.17,1.63.24.05,0,.1.01.15.02.03,0,.07.01.12.02l1.3.19c.87.12,1.79.24,2.72.36.54.07,1.06.14,1.59.2l1.4.16c3.36.39,6.76.71,10.13.97l.24.02c.72.06,1.48.11,2.24.16l2.3.15c1.21.08,2.44.14,3.66.2.67.04,1.31.06,1.97.09.04,0,.07,0,.1,0h.1c.45.02.85.03,1.25.05h.12c.84.03,1.73.06,2.62.09.9.02,1.79.04,2.69.06l1.15.02c.21,0,.36,0,.51,0,.03,0,.05,0,.08,0h1.18c1.64.02,3.3.02,4.94.01h1.18c.06-.01.12-.01.18-.01.12,0,.23,0,.35,0l1.23-.02c.89-.02,1.78-.04,2.68-.06.89-.02,1.78-.05,2.66-.08h.08c.4-.02.8-.04,1.21-.05.04,0,.08,0,.12,0,.04,0,.1,0,.13,0,.66-.02,1.3-.05,1.95-.09,1.25-.06,2.47-.13,3.68-.2l2.35-.15c.71-.05,1.47-.1,2.23-.16l.16-.02c3.41-.27,6.81-.59,10.15-.98l1.44-.17c.51-.06,1.03-.13,1.56-.2.93-.12,1.86-.24,2.77-.36l1.27-.18c.05,0,.1-.02.15-.02.05,0,.07-.01.12-.02.54-.08,1.09-.15,1.63-.24.06-.01.13-.02.19-.03,0,0,.02,0,.02,0,1.58-.24,3.13-.49,4.67-.75l.13-.02c.09-.02.17-.03.26-.04.57-.1,1.14-.2,1.71-.3.2-.04.33-.06.45-.08.02,0,.05-.01.07-.01l2-.38c.6-.11,1.19-.23,1.79-.35l.12-.02c.18-.04.37-.08.56-.12,2.41-.5,4.73-1.01,6.89-1.52.48-.11.95-.23,1.43-.35l1.6-.4s.06-.02.09-.02c.47-.12.93-.24,1.39-.36.96-.26,1.95-.52,2.93-.8.04-.01.08-.02.13-.03l.33-.09c.23-.06.45-.13.67-.19l.62-.18c.55-.16,1.1-.32,1.65-.49.8-.24,1.57-.48,2.33-.72.03-.01.06-.02.1-.03.11-.03.21-.07.32-.1l1.66-.55c.06-.02.12-.04.18-.06l.56-.19c.27-.09.58-.2.9-.31l.7-.24c.32-.11.63-.22.94-.34.06-.02.13-.05.19-.07.14-.05.28-.1.42-.15l.53-.19s.05-.02.07-.03c.23-.08.45-.16.67-.25l.31-.12c.66-.25,1.35-.52,2.03-.79.68-.26,1.34-.53,1.98-.8.37-.15.68-.28.98-.41.42-.18.8-.34,1.17-.5l.6-.27c.05-.03.1-.05.15-.07l.87-.39c.05-.02.1-.05.16-.07.59-.27,1.18-.55,1.76-.83.04-.02.08-.04.11-.05.09-.04.18-.08.27-.13l.51-.25s.11-.06.14-.07l.47-.23c.07-.04.25-.13.32-.16.28-.14.55-.28.82-.42l.13-.07c.24-.13.49-.25.73-.38.28-.15.56-.3.83-.45.27-.15.49-.27.7-.38l.16-.09c.06-.03.12-.07.18-.1l.58-.33s.06-.03.09-.05c.13-.07.26-.15.39-.23,0,0,.07-.04.07-.04l.2-.12s.06-.04.09-.06c.28-.16.5-.3.72-.43.06-.04.11-.07.17-.1.19-.11.37-.22.55-.33.06-.04.12-.08.18-.11.16-.1.32-.2.48-.3l.2-.13c.2-.12.38-.24.56-.36.02-.01.08-.05.1-.07.27-.17.53-.34.78-.51l.18-.12c.17-.11.32-.21.46-.31l.77-.54c.46-.33.91-.65,1.35-.98l.09-.07c.17-.13.33-.25.49-.37.2-.15.34-.26.48-.37l.19-.15c.2-.15.36-.29.53-.42l.03-.03c.06-.05.12-.11.18-.16l.19-.15s.08-.07.13-.11c.1-.08.21-.17.3-.25.03-.02.06-.05.08-.07.2-.17.4-.34.59-.51,0,0,.06-.06.07-.07.09-.08.17-.15.26-.23.04-.03.07-.07.11-.1.14-.13.26-.23.37-.33.05-.04.09-.08.14-.13.1-.09.21-.19.31-.29.24-.23.43-.41.61-.6l.56-.56c.38-.4.76-.8,1.11-1.21.03-.04.06-.07.09-.1l.12-.14c.07-.08.14-.16.21-.24.02-.02.08-.09.1-.11.11-.12.21-.25.31-.37l.19-.23c.06-.07.15-.19.24-.31l.2-.25c.07-.1.17-.22.26-.35.04-.05.08-.11.12-.16.02-.03.05-.06.07-.09.24-.33.47-.66.7-1,.13-.19.27-.42.41-.64.14-.21.24-.39.34-.57.03-.05.06-.1.09-.15.09-.15.17-.3.25-.44.01-.03.03-.05.04-.08.08-.14.15-.28.22-.42l.1-.2s.01-.02.02-.03l.02-.05c.12-.24.23-.48.34-.72.03-.06.06-.13.09-.19,0,0,0,0,0,0,.16-.35.3-.71.44-1.07.01-.03.02-.06.03-.09.02-.05.04-.1.06-.15.02-.06.04-.13.07-.19.03-.08.05-.15.08-.23l.02-.06s.02-.06.02-.08c.06-.16.09-.27.12-.38.03-.1.05-.19.09-.29,0-.01,0-.02,0-.03.08-.29.16-.61.23-.92.04-.19.07-.32.09-.45l.13-.75s0-.05.01-.08c.02-.13.03-.26.05-.39,0-.02,0-.04,0-.06,0-.05.01-.1.02-.15,0-.04.01-.08.01-.11,0-.09.02-.25.03-.34,0-.04,0-.09.01-.13,0-.05,0-.09,0-.14,0-.12.01-.23.02-.35,0-.19.01-.37.01-.54,0-2.43,1.97-4.41,4.41-4.41s4.41,1.97,4.41,4.4c0,.26,0,.51-.01.76,0,.01,0,.08,0,.09,0,.19-.01.38-.03.56,0,.19-.02.39-.04.58-.01.24-.04.48-.07.72-.03.32-.07.62-.11.9l-.07.45s-.02.09-.02.14l-.07.37c-.05.27-.1.56-.17.85-.11.49-.23.99-.37,1.48-.02.08-.05.16-.07.24-.06.22-.12.43-.19.64,0,.03-.02.06-.02.08l-.05.16c-.05.14-.09.28-.14.42-.07.2-.14.41-.22.61-.19.49-.39.98-.6,1.47-.04.09-.08.17-.12.26-.14.32-.29.63-.44.95l-.07.14s-.04.07-.05.11c-.02.04-.05.09-.07.14l-.07.14c-.1.18-.2.37-.3.55-.14.27-.29.54-.46.81-.18.31-.37.63-.56.93-.16.25-.34.54-.53.83-.32.47-.62.9-.93,1.33-.03.04-.05.07-.08.1-.04.06-.09.12-.13.17-.12.16-.24.32-.36.48l-.19.24c-.13.17-.27.34-.4.51l-.2.25c-.13.16-.27.32-.4.48-.06.07-.12.14-.18.21-.03.04-.1.12-.14.16l-.25.29s-.09.1-.13.14c-.42.48-.86.95-1.31,1.41-.02.02-.04.04-.06.06l-.6.6c-.25.25-.49.49-.75.73-.17.16-.33.31-.49.46-.16.15-.33.3-.49.45-.15.15-.31.28-.46.42-.28.25-.55.48-.82.71-.16.14-.32.27-.48.41-.07.06-.13.11-.2.16-.04.03-.07.06-.11.09-.04.03-.11.1-.15.13l-.12.09c-.19.16-.39.32-.59.47l-.15.12c-.21.17-.44.35-.67.51-.14.11-.34.26-.53.4l-.1.07c-.51.38-1.02.75-1.54,1.12l-.73.51c-.2.14-.43.3-.66.45l-.22.15c-.3.2-.64.43-.99.64-.22.14-.45.29-.68.44l-.16.1c-.2.13-.4.25-.6.37-.29.19-.59.37-.9.54-.26.16-.52.32-.79.47-.07.04-.17.1-.28.17l-.07.04c-.25.15-.46.27-.68.39l-.54.3c-.1.06-.22.13-.35.19l-.08.05c-.26.14-.52.29-.78.43-.26.15-.58.31-.9.48-.25.13-.52.27-.79.41l-.13.07c-.31.16-.61.32-.92.47-.16.09-.32.17-.49.25l-.36.18c-.11.06-.22.11-.33.17l-.1.05s-.05.03-.08.04l-.19.09c-.16.08-.32.15-.48.23-.63.3-1.28.61-1.93.91-.03.02-.07.03-.1.04-.01,0-.03.01-.04.02l-.7.32c-.06.03-.13.06-.19.09l-.3.13c-.17.08-.34.15-.51.23-.4.18-.83.36-1.26.54-.32.14-.69.3-1.07.45-.65.27-1.38.57-2.1.86-.7.28-1.42.55-2.15.83l-.31.11c-.28.11-.56.21-.85.31l-.5.18c-.2.07-.39.14-.57.2-.39.15-.78.29-1.18.42l-.65.23c-.34.12-.69.24-1.03.35l-.5.17c-.15.05-.3.1-.44.15l-1.49.49c-.17.06-.34.11-.52.16-.78.25-1.57.5-2.37.74-.56.17-1.15.35-1.74.52l-.62.18c-.25.07-.51.15-.77.22l-.39.11s-.05.02-.08.02l-.06.02c-.99.28-2,.55-3.01.82-.51.13-.99.26-1.47.38h0c-.07.02-.14.04-.22.05l-1.48.37c-.47.12-1.01.25-1.55.38-2.27.54-4.69,1.07-7.2,1.59-.03,0-.06.01-.09.02-.11.02-.22.04-.33.07-.04,0-.07.02-.11.02l-.17.03c-.62.12-1.24.25-1.87.37l-1.98.37c-.21.04-.42.08-.63.12-.57.11-1.21.22-1.85.33-.03,0-.05,0-.08.01l-.33.06c-1.51.26-3.1.52-4.71.76-.1.02-.2.03-.31.04-.56.09-1.13.17-1.69.25h-.06s-.06.02-.1.03l-1.36.19c-.97.13-1.92.26-2.86.38-.54.07-1.1.14-1.67.21l-1.48.17c-3.44.39-6.95.73-10.42,1l-.16.02c-.82.06-1.6.12-2.38.17l-2.36.15c-1.26.08-2.53.15-3.79.21-.66.04-1.34.07-2.03.09-.15,0-.28.02-.42.02-.34.01-.69.03-1.03.04h-.11c-.96.04-1.86.07-2.77.09-.91.02-1.83.04-2.75.06l-1.18.02c-.17,0-.4,0-.64,0h-1.22c-.84.02-1.68.02-2.53.02ZM167.86,147.65s-.05,0-.08.02c.03,0,.05-.01.08-.02ZM84.32,147.67s0,0,0,0c0,0,0,0,0,0ZM84.31,147.66s0,0,0,0c0,0,0,0,0,0ZM84.3,147.66h0,0ZM33.57,142.64s.03,0,.04.01c-.01,0-.03,0-.04-.01ZM33.57,142.63s0,0,0,0c0,0,0,0,0,0ZM33.56,142.63s0,0,0,0c0,0,0,0,0,0ZM249.14,117.71s-.02.04-.03.06c.01-.02.02-.04.03-.06ZM6.87,115.67h0,0ZM241.86,112.51s0,0,0,0c0,0,0,0,0,0ZM241.87,112.5s0,0,0,.01c0,0,0,0,0-.01ZM9.35,109.95s0,0,0,0c0,0,0,0,0,0ZM242.76,109.94s0,0,0,0c0,0,0,0,0,0ZM242.77,109.93s0,0,0,0c0,0,0,0,0,0ZM242.77,109.92s0,0,0,0c0,0,0,0,0,0ZM242.77,109.91s0,0,0,0c0,0,0,0,0,0ZM243.18,107.91h0s0,0,0,0ZM243.59,106.08c-.19.4-.3.79-.35,1.13.07-.39.19-.78.35-1.13Z"/>
  <path class="cls-1" d="M126.06,159.51c-.54,0-1.08,0-1.62,0-.34,0-.72,0-1.1-.01h-.09s-.33,0-.33,0c-.22,0-.43,0-.65-.01-.18,0-.42,0-.66,0h-.32c-.26,0-.53,0-.79-.02-.27,0-.54,0-.8-.01-.65-.01-1.32-.03-1.98-.05-.35,0-.76-.02-1.16-.03l-2.1-.07c-.23,0-.47-.02-.7-.03-.12,0-.24,0-.35-.02-.69-.02-1.36-.06-2.05-.09-1.25-.06-2.52-.13-3.77-.21l-2.31-.15c-.83-.06-1.61-.11-2.39-.17l-.34-.03c-.42-.03-.83-.06-1.25-.1-.03,0-.05,0-.07,0-.53-.04-1.06-.08-1.59-.14-2.53-.22-5.03-.48-7.39-.76-.26-.03-.58-.06-.89-.1l-.58-.07c-.41-.05-.86-.1-1.31-.16-.11-.01-.22-.02-.33-.04h-.04s-.11-.02-.13-.02l-.13-.02c-.86-.11-1.71-.22-2.56-.35l-.63-.09c-.23-.03-.5-.07-.77-.11-.03,0-.05,0-.08-.01h-.05s0,0,0,0c-.4-.06-.8-.11-1.19-.18l-.48-.07c-.1-.01-.2-.03-.3-.04l-.12-.02c-.18-.02-.36-.05-.53-.08l-1.13-.17c-1.05-.17-2.05-.34-3.04-.51l-.19-.03s-.1-.02-.12-.02c-.36-.06-.71-.12-1.07-.19-.29-.05-.57-.1-.86-.15-.18-.03-.36-.06-.54-.1-.45-.08-.9-.16-1.35-.25-.28-.05-.5-.1-.72-.14-.61-.11-1.21-.23-1.81-.35l-.14-.03c-.11-.02-.22-.04-.32-.06l-.15-.03s-.05,0-.07-.01c-2.38-.48-4.81-1.02-7.22-1.6-.27-.06-.52-.15-.77-.26-.21-.01-.42-.04-.63-.09-.32-.07-.65-.15-.97-.23l-.24-.06c-.16-.04-.32-.08-.48-.12-.02,0-.04,0-.05-.01-.29-.07-.59-.15-.88-.23-.22-.06-.45-.12-.67-.18-.2-.05-.41-.1-.61-.16-.82-.22-1.63-.44-2.43-.67-.04-.01-.08-.02-.12-.03,0,0,0,0-.01,0l-.38-.11c-.26-.07-.51-.14-.76-.22-.71-.2-1.45-.42-2.19-.65-.02,0-.03,0-.05-.02-.02,0-.05-.01-.07-.02-.04-.01-.07-.02-.11-.03l-.96-.3c-.46-.14-.9-.28-1.34-.43h-.02c-.16-.06-.32-.11-.49-.16l-1.56-.51c-.08-.03-.22-.07-.35-.12h-.01c-.18-.06-.36-.12-.54-.18-.22-.07-.42-.14-.62-.21l-.14-.05c-.31-.11-.63-.22-.95-.33-.39-.13-.77-.27-1.14-.41-.17-.06-.34-.12-.52-.18-.08-.03-.16-.06-.23-.08l-.08-.03c-.1-.03-.23-.08-.35-.13-.24-.09-.49-.18-.73-.27l-.29-.11c-.76-.29-1.48-.57-2.2-.85-.71-.28-1.43-.58-2.14-.87-.31-.13-.68-.28-1.05-.44-.39-.16-.82-.35-1.24-.53-.15-.07-.32-.14-.49-.22l-.3-.13s-.06-.03-.09-.04c-.2-.08-.4-.17-.59-.26l-.21-.09c-.09-.04-.18-.08-.27-.13-.61-.28-1.22-.57-1.81-.85-.16-.07-.31-.15-.47-.22l-.2-.1s-.06-.03-.09-.04l-.1-.05c-.11-.05-.21-.1-.32-.16l-.41-.2c-.13-.06-.28-.14-.44-.22-.31-.15-.61-.31-.91-.46l-.94-.49c-.34-.18-.65-.34-.95-.51-.21-.11-.47-.25-.73-.4l-.08-.05c-.13-.07-.26-.14-.39-.21l-.49-.28c-.22-.12-.44-.25-.65-.38l-.11-.06c-.09-.05-.17-.1-.25-.15l-.42-.24c-.13-.07-.28-.17-.44-.27-.29-.16-.57-.33-.84-.51-.2-.12-.4-.25-.6-.37l-.18-.11c-.23-.15-.48-.31-.73-.47-.29-.18-.63-.41-.97-.63l-.1-.07c-.27-.18-.49-.33-.71-.48l-.27-.18c-.18-.12-.37-.25-.55-.39-.51-.35-1-.72-1.49-1.08l-.07-.05s-.06-.05-.06-.05c-.17-.12-.35-.26-.53-.41-.21-.16-.42-.32-.62-.48l-.17-.14c-.15-.12-.32-.26-.5-.4l-.17-.14c-.05-.04-.1-.08-.15-.13-.09-.07-.21-.17-.32-.27-.16-.13-.32-.27-.48-.4-.28-.23-.55-.47-.81-.71-.14-.12-.3-.26-.47-.42-.16-.15-.33-.3-.49-.45-.17-.15-.33-.31-.49-.46-.26-.25-.51-.49-.75-.73l-.59-.59s-.04-.05-.07-.07c-.45-.46-.89-.94-1.31-1.41-.05-.05-.1-.1-.14-.15l-.23-.28s-.06-.07-.09-.11c-.09-.11-.16-.19-.23-.26-.14-.16-.27-.33-.41-.49l-.16-.19c-.19-.23-.32-.4-.46-.58l-.15-.2c-.14-.18-.26-.34-.38-.5-.05-.07-.1-.13-.15-.2-.02-.03-.04-.05-.06-.08-.32-.43-.62-.87-.92-1.31-.19-.29-.37-.57-.54-.84-.2-.32-.39-.63-.57-.95-.16-.27-.31-.53-.45-.8-.1-.19-.2-.38-.3-.57l-.07-.14s-.04-.08-.07-.12l-.04-.07c-.23-.47-.46-.94-.66-1.42-.2-.46-.4-.94-.58-1.43-.08-.2-.15-.4-.22-.6-.06-.16-.11-.32-.16-.48-.01-.03-.03-.1-.06-.17-.07-.22-.14-.43-.2-.65-.02-.08-.05-.15-.07-.23-.14-.5-.27-1-.39-1.55-.06-.25-.11-.54-.16-.83l-.06-.34s-.01-.08-.02-.12l-.08-.5c-.04-.22-.07-.49-.1-.76,0-.06-.02-.13-.02-.19-.03-.21-.05-.42-.06-.63-.02-.19-.03-.38-.04-.58-.01-.21-.02-.42-.03-.63,0-.31-.01-.54-.01-.78v-43.71c0-8.93,4.89-17.66,14.14-25.26,5.1-4.19,11.54-8.08,19.15-11.56,5.66-2.58,11.96-4.93,18.74-6.99,5.85-1.78,12.11-3.34,18.58-4.66,5.92-1.21,12.15-2.23,18.51-3.04,6.07-.77,12.28-1.35,18.48-1.72,12.02-.75,24.87-.75,36.91,0,6.19.37,12.4.95,18.47,1.72,6.37.81,12.6,1.83,18.51,3.04,6.47,1.32,12.72,2.89,18.58,4.67,6.78,2.06,13.08,4.41,18.74,6.99,7.61,3.47,14.05,7.36,19.16,11.56,9.25,7.6,14.14,16.33,14.14,25.26v43.7c0,.26,0,.51-.01.76,0,.01,0,.08,0,.09,0,.19-.01.38-.03.56,0,.19-.02.39-.04.58-.01.24-.04.48-.07.72-.03.32-.07.62-.11.9l-.07.45s-.02.09-.02.14l-.07.37c-.05.27-.1.56-.17.85-.11.49-.23.99-.37,1.48-.02.08-.05.16-.07.24-.06.22-.12.43-.19.64,0,.03-.02.06-.02.08l-.05.16c-.05.14-.09.28-.14.42-.07.2-.14.41-.22.61-.19.49-.39.98-.6,1.47-.04.09-.08.17-.12.26-.14.32-.29.63-.44.95l-.07.14s-.04.07-.05.11c-.02.04-.05.09-.07.14l-.07.14c-.1.19-.2.37-.3.56-.14.27-.29.54-.46.81-.18.31-.37.63-.56.94-.16.25-.34.54-.53.83-.32.47-.62.9-.93,1.33-.03.03-.05.07-.08.1-.04.06-.09.12-.13.17-.12.16-.24.32-.36.48l-.19.24c-.13.17-.27.34-.4.51l-.2.25c-.13.16-.27.32-.4.48-.06.07-.12.14-.18.21-.03.04-.1.12-.14.16l-.25.29s-.09.1-.13.14c-.42.48-.86.95-1.31,1.41-.02.02-.04.04-.06.06l-.6.6c-.25.25-.49.49-.75.73-.17.16-.33.31-.49.46-.16.15-.33.3-.49.45-.15.15-.31.28-.46.42-.28.25-.55.48-.82.71-.16.13-.32.27-.48.4-.11.1-.23.19-.34.28-.04.03-.09.08-.13.11l-.12.09c-.19.16-.39.32-.59.47l-.15.12c-.2.16-.41.32-.62.48-.2.16-.38.29-.55.42l-.17.12c-.45.33-.92.68-1.42,1.03-.19.14-.39.28-.58.42l-.26.18c-.21.15-.42.29-.63.43l-.22.15c-.3.2-.64.43-.99.64-.22.14-.45.29-.68.44l-.16.1c-.2.13-.4.25-.6.37-.28.18-.56.35-.84.51-.16.1-.32.2-.48.29l-.38.22c-.09.05-.18.11-.27.16l-.07.04c-.25.15-.47.27-.68.39l-.54.3c-.1.06-.22.13-.35.19l-.08.05c-.26.14-.52.29-.78.43-.26.15-.58.31-.9.48-.25.13-.52.27-.79.41l-.13.07c-.31.16-.61.32-.92.47-.16.09-.32.17-.49.25l-.36.18c-.11.06-.22.11-.33.16l-.1.05s-.05.03-.08.04l-.19.09c-.15.07-.31.15-.46.22-.61.3-1.23.59-1.86.88-.08.04-.16.08-.24.11l-.2.09c-.2.09-.39.18-.59.26-.03.01-.06.03-.09.04l-.3.13c-.17.08-.34.15-.51.23-.4.18-.83.36-1.26.54-.32.14-.69.3-1.07.45-.65.27-1.38.57-2.1.86-.7.28-1.42.55-2.15.83l-.31.11c-.25.09-.5.19-.75.28-.12.05-.25.1-.36.13l-.06.02c-.08.03-.16.06-.24.09-.17.06-.34.12-.51.18-.37.14-.75.28-1.14.41-.3.11-.61.21-.91.32l-.22.08c-.16.06-.36.12-.57.19-.17.06-.36.12-.54.18h-.01c-.11.05-.23.08-.34.12-.49.17-.99.33-1.49.49l-.08.03c-.17.05-.33.11-.5.16-.79.25-1.58.5-2.38.75,0,0-.02,0-.02,0-.03,0-.05.02-.08.03-.55.17-1.11.33-1.67.49l-.59.17c-.25.07-.51.15-.77.22l-.39.11s-.05.02-.08.02h-.05c-.81.24-1.63.47-2.45.69-.16.05-.37.1-.58.15-.23.07-.46.13-.67.18-.29.08-.59.15-.88.23h0s-.03,0-.04,0c-.16.04-.33.09-.49.13l-.22.06c-.3.08-.58.15-.87.21-.51.13-1.01.25-1.52.37-2.39.58-4.82,1.11-7.21,1.6-.03,0-.05.01-.07.01l-.15.03c-.11.02-.21.04-.32.06l-.13.03c-.6.12-1.2.24-1.81.35-.22.05-.44.09-.66.13-.5.1-.95.18-1.41.26-.2.04-.4.07-.59.11-.57.11-1.21.22-1.85.33-.03,0-.05,0-.08.01l-.25.04c-.99.17-1.99.33-2.99.5l-1.18.18c-.17.03-.35.05-.53.08l-.12.02c-.1.02-.2.03-.3.04l-.47.07c-.4.06-.79.12-1.2.18h-.07s-.04.02-.06.02c-.26.04-.54.08-.8.12l-.62.09c-.83.12-1.69.23-2.55.35l-.12.02s-.07,0-.1.01h-.06c-.11.02-.22.04-.34.05-.45.06-.9.11-1.36.16l-.54.07c-.31.04-.63.07-.95.11-2.31.27-4.81.53-7.37.75-.49.05-1.02.09-1.55.13-.03,0-.05,0-.08,0-.42.04-.84.07-1.26.1l-.29.02c-.82.06-1.6.12-2.38.17l-2.36.15c-1.26.08-2.53.15-3.79.21-.66.04-1.34.07-2.03.09-.13,0-.24.01-.35.02-.26.01-.49.02-.71.03l-2.07.07c-.42.01-.83.03-1.24.03-.6.02-1.26.04-1.93.05-.25,0-.52.01-.79.01-.26,0-.52.01-.79.01h-.38c-.16.01-.37.01-.59.01-.25,0-.45.01-.66.01h-.41c-.38,0-.77.01-1.15.01-.49,0-1.03,0-1.57,0ZM122.33,150.67s.08,0,.13,0c.2,0,.33.01.46.01h.55c.33,0,.68.01,1.02.01.57,0,1.08,0,1.62,0,.49,0,.99,0,1.48,0,.39,0,.73,0,1.07,0h.55c.13,0,.26,0,.39-.01.04,0,.16,0,.2,0,.15,0,.3,0,.45,0h.49c.23,0,.45-.01.67-.02.27,0,.55,0,.82-.01.65-.01,1.29-.03,1.92-.05.42,0,.78-.02,1.15-.03l2.1-.07c.19,0,.38-.02.56-.02.07,0,.2,0,.27,0,.04,0,.1,0,.13,0,.66-.02,1.3-.05,1.95-.09,1.25-.06,2.47-.13,3.68-.2l2.35-.15c.71-.05,1.47-.1,2.23-.16l.35-.03c.43-.03.85-.06,1.27-.1.06,0,.12,0,.18-.01.43-.03.85-.07,1.28-.11,2.52-.22,4.94-.47,7.22-.74.32-.03.57-.06.82-.09l.59-.07c.49-.06.92-.11,1.36-.16.06,0,.12-.02.18-.02.06,0,.14-.02.19-.02l.16-.02c.82-.11,1.64-.21,2.45-.33l.68-.09c.21-.03.4-.06.58-.09.07-.01.13-.02.19-.03.05,0,.06,0,.1-.02.36-.05.72-.1,1.07-.16.03,0,.07-.01.1-.01l.48-.07c.06,0,.12-.02.19-.02.01,0,.03,0,.04,0l.27-.04c.07,0,.15-.02.22-.03.03,0,.07-.01.1-.02l1.17-.18c.94-.15,1.91-.31,2.88-.48.03,0,.05,0,.08-.01.14-.03.24-.04.33-.06.58-.1,1.14-.2,1.71-.3.2-.04.33-.06.45-.08.04,0,.09-.02.13-.02.43-.08.85-.16,1.28-.24.22-.04.39-.07.55-.11.04,0,.08-.02.13-.03.6-.11,1.19-.23,1.78-.35l.17-.03s.06-.01.09-.02l.39-.08h0c2.28-.46,4.61-.98,6.91-1.53.49-.12.96-.23,1.44-.35.07-.02.14-.03.2-.05.2-.04.39-.09.59-.14l.29-.07c.12-.03.24-.06.36-.09.1-.03.2-.05.31-.08.22-.05.43-.11.65-.17.03,0,.05-.01.08-.02.17-.04.34-.09.51-.14.04-.01.09-.03.13-.03.15-.04.31-.08.46-.12.84-.22,1.63-.44,2.4-.66.05-.02.1-.03.16-.04l.33-.1c.23-.06.45-.13.67-.19l.62-.18c.53-.15,1.04-.3,1.55-.46.02,0,.05-.01.07-.02.02,0,.04-.01.05-.02.77-.23,1.53-.47,2.29-.72.04-.01.08-.02.12-.04.11-.03.21-.07.32-.1l.12-.04c.46-.15.91-.29,1.34-.44.04-.01.08-.03.12-.04l.08-.03c.06-.02.12-.04.18-.06l.11-.03c.1-.03.2-.06.3-.1.05-.02.1-.04.16-.05.14-.05.29-.09.44-.15l.28-.09c.27-.09.54-.19.81-.28.03-.01.05-.02.08-.03.32-.11.63-.22.94-.34.06-.02.13-.05.19-.07.14-.05.28-.1.42-.15.04-.01.08-.03.12-.04l.07-.03c.06-.02.12-.04.18-.06.08-.03.16-.06.23-.09.23-.08.45-.16.67-.25l.31-.12c.66-.25,1.35-.52,2.03-.79.68-.26,1.34-.53,1.98-.8.37-.15.68-.28.98-.41.42-.18.8-.34,1.17-.5l.6-.27c.1-.05.19-.09.29-.13.15-.06.3-.13.45-.2l.2-.09c.07-.03.13-.07.2-.1.6-.27,1.18-.54,1.76-.83.05-.02.1-.05.15-.07.09-.04.18-.08.27-.13l.51-.25s.11-.06.14-.07l.47-.23c.07-.04.25-.13.32-.16.28-.14.55-.28.82-.42l.13-.07c.24-.13.49-.25.73-.38.28-.15.56-.3.83-.45.27-.15.49-.27.7-.38l.16-.09c.06-.03.12-.07.18-.1l.58-.33s.06-.03.09-.05c.13-.07.26-.15.39-.23,0,0,.07-.04.07-.04l.2-.12s.1-.06.15-.09l.51-.29c.09-.06.24-.16.34-.21.19-.11.37-.22.55-.33.06-.04.12-.08.18-.11.16-.1.32-.2.48-.3l.2-.13c.2-.12.38-.24.56-.36.02-.01.08-.05.1-.07.27-.17.53-.34.78-.51l.18-.12c.17-.11.32-.21.46-.31.03-.02.06-.04.09-.07l.3-.2c.07-.05.13-.09.2-.14.05-.04.15-.11.2-.15.46-.32.9-.65,1.34-.97l.25-.18c.09-.06.16-.13.24-.19.03-.02.1-.08.14-.1.15-.11.29-.22.43-.33l.19-.15c.2-.15.36-.29.53-.42l.2-.16c.08-.06.14-.11.2-.16.05-.04.1-.08.15-.12.1-.08.21-.17.3-.25.03-.02.06-.05.08-.07.2-.17.4-.34.59-.51,0,0,.06-.06.07-.07.09-.08.17-.15.26-.23.04-.03.07-.07.11-.1.14-.13.26-.23.37-.33.05-.04.09-.08.14-.13.1-.09.21-.19.31-.29.24-.23.43-.41.61-.6l.56-.56c.38-.4.76-.8,1.11-1.2.03-.04.06-.07.09-.1l.12-.13c.07-.08.14-.16.21-.24.02-.02.08-.09.1-.11.11-.12.21-.25.31-.37l.19-.23c.06-.07.15-.19.24-.31l.2-.25c.07-.1.17-.22.26-.35.04-.05.08-.11.12-.16.02-.03.05-.06.07-.09.24-.33.47-.66.7-1,.13-.19.27-.42.41-.64.14-.21.24-.39.34-.57.03-.05.06-.1.09-.15.09-.15.17-.3.25-.44.01-.03.03-.05.04-.08.08-.14.15-.28.22-.42l.1-.2s.01-.02.02-.03l.02-.05c.12-.24.23-.48.34-.72.03-.06.06-.13.09-.19,0,0,0,0,0,0,.16-.35.3-.71.44-1.07.01-.03.02-.06.03-.09.02-.05.04-.1.06-.15.02-.06.04-.13.07-.19.03-.08.05-.15.08-.23l.02-.06s.02-.06.02-.08c.06-.16.09-.27.12-.38.03-.1.05-.19.09-.29,0-.01,0-.02,0-.03.08-.29.16-.61.23-.92.04-.19.07-.32.09-.45l.13-.75s0-.05.01-.08c.02-.13.03-.26.05-.39,0-.02,0-.04,0-.06,0-.05.01-.1.02-.15,0-.04.01-.08.01-.11,0-.09.02-.25.03-.34,0-.04,0-.09.01-.13,0-.05,0-.09,0-.14,0-.12.01-.23.02-.35,0-.19.01-.37.01-.54v-43.71c0-6.29-3.67-12.5-10.92-18.45-4.51-3.71-10.31-7.2-17.22-10.35-5.3-2.42-11.23-4.63-17.64-6.57-5.59-1.7-11.58-3.2-17.78-4.46-5.7-1.16-11.71-2.15-17.86-2.93-5.87-.75-11.89-1.31-17.89-1.66-11.7-.73-24.16-.72-35.84,0-6.01.36-12.03.92-17.9,1.67-6.15.78-12.16,1.77-17.86,2.93-6.21,1.27-12.19,2.77-17.78,4.46-6.4,1.94-12.34,4.15-17.64,6.57-6.91,3.16-12.71,6.64-17.22,10.35-7.25,5.95-10.93,12.16-10.93,18.45v43.7c0,.16,0,.32,0,.47,0,.16,0,.29.02.42,0,.05,0,.09,0,.14,0,.04,0,.09.01.13.01.12.02.24.03.36,0,.03,0,.07.01.11,0,.03,0,.05,0,.08,0,.03,0,.06.01.1.02.14.03.29.05.43l.13.78c.03.19.06.32.09.45.08.36.16.68.25,1,0,0,0,0,0,.01.03.08.05.17.08.25.03.12.07.23.1.34h0s.02.07.04.11c.04.14.07.22.1.3.02.06.05.13.07.19.02.05.04.1.06.15.01.03.02.06.04.09.13.36.28.71.43,1.07.14.34.29.64.44.94.01.02.02.05.04.07l.08.16c.07.14.15.28.22.42.02.03.03.06.05.08.08.15.16.3.26.45.03.04.05.09.08.13.1.18.21.36.32.54,0,.01.05.07.05.09.13.21.26.42.4.62.21.3.43.62.66.94.02.03.04.06.07.09.05.06.1.13.14.19.09.13.19.26.29.39l.16.21c.1.12.19.25.3.38l.14.17c.1.13.21.25.32.38.03.03.05.06.08.09.1.11.17.19.23.27l.12.14s.06.06.08.09c.36.41.73.81,1.11,1.21l.56.56c.19.2.38.38.57.56.14.13.24.23.34.32.05.04.1.09.14.13.12.11.24.22.36.33.04.03.08.07.11.11.1.09.19.18.29.26.24.21.43.38.63.55.03.03.06.05.1.08.1.08.2.17.3.25.05.04.09.07.13.11.06.05.12.1.18.15.02.02.04.04.07.05l.87.7c.15.12.3.23.44.34.03.02.07.05.1.08.1.08.18.15.28.22,0,0,.07.05.07.05l.17.12c.46.35.89.66,1.32.96.07.05.15.1.22.16.06.05.13.09.2.14l.31.21s.05.03.07.05c.15.11.31.21.47.32l.12.08s.05.04.07.04c.25.17.51.34.78.51.26.17.46.3.65.42l.22.14c.16.1.32.2.48.3.06.03.11.07.17.11.18.12.37.23.56.34.1.05.19.11.28.17l.56.33c.05.03.11.06.16.09l.2.12c.17.1.31.18.45.26.03.02.06.04.09.05l.58.33c.06.03.12.06.17.09l.15.08c.21.12.43.24.65.35.32.18.58.31.83.45l.92.48c.26.14.54.28.81.41.07.03.14.07.2.11l.59.29s.09.04.14.07l.52.25c.09.04.17.09.26.13.04.02.07.03.11.05.6.29,1.22.58,1.84.86.05.02.11.05.16.08l.2.09c.15.07.3.14.45.2.1.04.19.08.29.13l.58.26c.4.17.78.34,1.15.5.34.15.65.28.97.41.7.29,1.36.56,2.02.82.7.28,1.39.54,2.08.81l.29.11c.22.08.44.17.66.24.08.03.15.06.23.09.07.02.13.05.19.07l.08.03s.08.03.11.04c.14.05.28.1.42.15.06.02.13.04.19.07.31.12.62.23.94.34.03,0,.05.02.07.03.28.1.57.2.85.3l.12.04v-7.25c0-2.43,1.97-4.41,4.41-4.41s4.41,1.97,4.41,4.41v10.01c.06.02.13.04.19.06.03,0,.07.02.1.03.97.27,1.96.54,2.95.8.45.12.91.24,1.36.36.03,0,.06.01.1.02l1.54.38c.26.06.51.15.75.25.25.02.49.05.74.11.58.14,1.17.28,1.78.41.48-1.91,2.21-3.32,4.27-3.32,2.43,0,4.41,1.97,4.41,4.41v.72c.28.05.57.1.85.15.04,0,.08.02.13.02.13.03.25.05.38.07.03,0,.08.01.11.02.22.04.43.08.64.11.07.01.13.02.2.03.28.06.56.11.85.15.05,0,.15.03.26.04.03,0,.12.02.14.02.96.17,1.94.33,2.92.49l1.13.17s.07.01.11.02c.07.01.15.02.22.03l.27.04s.03,0,.05,0c.06,0,.13.02.17.02l.45.07s.1.01.13.02c.35.06.71.11,1.07.16.05,0,.09.01.14.02.04,0,.09.01.16.02.18.03.37.06.55.08l.69.09c.84.12,1.65.23,2.46.33l.16.02s.15.02.19.02c0,0-.03,0-.07,0,.09,0,.18.02.26.03.44.06.87.11,1.31.16l.63.08c.25.03.5.06.76.08,2.34.28,4.75.52,7.23.74.47.05.9.08,1.33.11.06,0,.11,0,.17.01.42.04.84.07,1.26.1l.41.03c.72.06,1.48.11,2.24.16l2.3.15c1.21.08,2.44.14,3.66.2.67.04,1.31.06,1.97.09.04,0,.07,0,.1,0h.1c.07,0,.08,0,.15.01.23.01.41.02.6.03l2.12.07c.35.01.71.02,1.07.03.69.02,1.33.04,1.96.05.29,0,.56,0,.83.01.22,0,.45,0,.67.01h.43c.21.01.36.01.51.01ZM161.86,148.5h0,0ZM161.88,148.49s-.01,0-.02,0c0,0,.01,0,.02,0ZM90.23,148.49s0,0,0,0c0,0,0,0,0,0ZM167.87,147.65s-.06.01-.09.02c.03,0,.06-.01.09-.02ZM84.29,147.66s.02,0,.04,0c-.01,0-.02,0-.04,0ZM206.05,138.25s0,0,0,0c0,0,0,0,0,0ZM46.06,138.25s0,0,0,0c0,0,0,0,0,0ZM45.81,138.15s.03,0,.04.01c-.01,0-.03,0-.04-.01ZM206.28,138.16s0,0-.01,0c0,0,0,0,.01,0ZM214.83,134.69s0,0,0,0c0,0,0,0,0,0ZM215.33,134.44s0,0,0,0c0,0,0,0,0,0ZM36.78,134.44s0,0,0,0c0,0,0,0,0,0ZM249.03,117.91s0,0,0,0c0,0,0,0,0,0ZM249.03,117.9h0s0,0,0,0ZM249.14,117.71s-.02.04-.03.06c.01-.02.02-.04.03-.06ZM6.87,115.67h0,0ZM241.86,112.51s0,0,0,0c0,0,0,0,0,0ZM241.87,112.5s0,0,0,.01c0,0,0,0,0-.01ZM9.35,109.95s0,0,0,0c0,0,0,0,0,0ZM242.76,109.94s0,0,0,0c0,0,0,0,0,0ZM242.77,109.93s0,0,0,0c0,0,0,0,0,0ZM242.77,109.92s0,0,0,0c0,0,0,0,0,0ZM242.77,109.91s0,0,0,0c0,0,0,0,0,0ZM243.18,107.91h0s0,0,0,0ZM243.59,106.08c-.19.4-.3.79-.35,1.13.07-.39.19-.78.35-1.13ZM71.49,135.72c-2.43,0-4.41-1.97-4.41-4.41v-19.54c0-2.43,1.97-4.41,4.41-4.41s4.41,1.97,4.41,4.41v19.54c0,2.43-1.97,4.41-4.41,4.41Z"/>
  <g>
    <path class="cls-1" d="M16.94,131.98c-2.43,0-4.41-1.97-4.41-4.41v-43.7c0-2.43,1.97-4.41,4.41-4.41s4.41,1.97,4.41,4.41v43.7c0,2.43-1.97,4.41-4.41,4.41Z"/>
    <path class="cls-1" d="M35.12,142.93c-2.43,0-4.41-1.97-4.41-4.41v-43.7c0-2.43,1.97-4.41,4.41-4.41s4.41,1.97,4.41,4.41v43.7c0,2.43-1.97,4.41-4.41,4.41Z"/>
    <path class="cls-1" d="M53.31,149.71c-2.43,0-4.41-1.97-4.41-4.4v-43.7c0-2.43,1.97-4.41,4.41-4.41s4.41,1.97,4.41,4.41v43.7c0,2.43-1.97,4.41-4.41,4.41Z"/>
    <path class="cls-1" d="M71.49,154.27c-2.43,0-4.41-1.97-4.41-4.4v-43.7c0-2.43,1.97-4.41,4.41-4.41s4.41,1.97,4.41,4.41v43.7c0,2.43-1.97,4.41-4.41,4.41Z"/>
    <path class="cls-1" d="M89.68,157.26c-2.43,0-4.41-1.97-4.41-4.41v-43.7c0-2.43,1.97-4.41,4.41-4.41s4.41,1.97,4.41,4.41v43.7c0,2.43-1.97,4.41-4.41,4.41Z"/>
    <path class="cls-1" d="M107.87,158.96c-2.43,0-4.41-1.97-4.41-4.41v-43.7c0-2.43,1.97-4.41,4.41-4.41s4.41,1.97,4.41,4.41v43.7c0,2.43-1.97,4.41-4.41,4.41Z"/>
    <path class="cls-1" d="M126.05,159.51c-2.43,0-4.41-1.97-4.41-4.41v-43.7c0-2.43,1.97-4.41,4.41-4.41s4.41,1.97,4.41,4.41v43.7c0,2.43-1.97,4.41-4.41,4.41Z"/>
    <path class="cls-1" d="M144.24,158.96c-2.43,0-4.41-1.97-4.41-4.41v-43.7c0-2.43,1.97-4.41,4.41-4.41s4.41,1.97,4.41,4.41v43.7c0,2.43-1.97,4.41-4.41,4.41Z"/>
    <path class="cls-1" d="M162.43,157.26c-2.43,0-4.41-1.97-4.41-4.41v-43.7c0-2.43,1.97-4.41,4.41-4.41s4.41,1.97,4.41,4.41v43.7c0,2.43-1.97,4.41-4.41,4.41Z"/>
    <path class="cls-1" d="M180.62,154.27c-2.43,0-4.41-1.97-4.41-4.4v-43.7c0-2.43,1.97-4.41,4.41-4.41s4.41,1.97,4.41,4.41v43.7c0,2.43-1.97,4.41-4.41,4.41Z"/>
    <path class="cls-1" d="M198.8,149.71c-2.43,0-4.41-1.97-4.41-4.4v-43.7c0-2.43,1.97-4.41,4.41-4.41s4.41,1.97,4.41,4.41v43.7c0,2.43-1.97,4.41-4.41,4.41Z"/>
    <path class="cls-1" d="M216.98,142.93c-2.43,0-4.41-1.97-4.41-4.41v-43.7c0-2.43,1.97-4.41,4.41-4.41s4.41,1.97,4.41,4.41v43.7c0,2.43-1.97,4.41-4.41,4.41Z"/>
    <path class="cls-1" d="M235.17,131.98c-2.43,0-4.41-1.97-4.41-4.41v-43.7c0-2.43,1.97,0,4.41,0s4.41-2.43,4.41,0v43.7c0,2.43-1.97,4.41-4.41,4.41Z"/>
  </g>
</svg>