<?xml version="1.0" encoding="UTF-8"?>
<svg id="Layer_1" data-name="Layer 1" xmlns="http://www.w3.org/2000/svg" viewBox="0 0 300 300">
  <defs>
    <style>
      .cls-1 {
        fill: #0d153a;
      }
    </style>
  </defs>
  <path class="cls-1" d="M266.59,262.6l-18.25-183.86c-.71-7.04-6.63-12.42-13.7-12.42h-12c-.01-29.54-20.88-59.08-46.36-59.08-7.92,0-16.06,3.14-27.57,12.74-7.76-7.82-17.38-12.74-27.78-12.74-25.5,0-46.36,30.73-46.36,59.1-2.78,0-5.3,0-7.03,0v-.02h-7.83c-7.07,0-12.85,6.25-13.02,14.08l-13.35,184.91c-.17,7.66,5.11,14.14,12.03,14.73l156.94,12.61c4.11.32,8.24-.17,12.16-1.44l42.51-13.87c6.27-2.05,10.28-8.18,9.62-14.75ZM156.99,66.33h-16.77c0-7.21,1.34-20.3,8.49-30.1,5.09,8.61,8.28,19.23,8.28,30.1ZM96.69,31.52c7.04-9.41,15.88-14.82,24.25-14.82,7.46,0,14.76,3.92,20.82,10.26-9.5,13.76-11.83,28.63-11.84,39.37h-38.01s-3.02,0-7.03,0c0-11.93,4.42-24.94,11.81-34.82ZM46.24,269.77c-1.24-.1-2.58-1.78-2.6-4.04l13.33-184.58.03-.52c.05-2.36,1.47-4,2.72-4h14.86v10.65c-1.97,1.64-3.22,4.12-3.22,6.89s1.25,5.25,3.22,6.9c1.56,1.33,3.58,2.11,5.8,2.11,1.65,0,3.18-.44,4.51-1.21,2.7-1.56,4.51-4.47,4.51-7.8s-1.8-6.25-4.51-7.8v-9.73h72.12v9.73c-2.71,1.56-4.51,4.47-4.51,7.8s1.8,6.25,4.51,7.8c1.33.77,2.86,1.21,4.51,1.21,2.21,0,4.24-.79,5.8-2.11,1.97-1.65,3.22-4.13,3.22-6.9s-1.25-5.25-3.22-6.89v-10.65h22.28l8.42,205.34-151.75-12.2ZM167.3,66.33c0-14.02-4.71-28.04-12.37-38.9,7.11-7.88,16.14-10.73,21.35-10.73,18.53,0,36.04,24.12,36.06,49.63h-45.04ZM258.69,267.09c-.38.87-16.93-5.37-23.17-7.44,0,0-24.55,18.22-25.22,17.38-.66-.83,17.82-18.88,21.36-22.53-2.46-28.92-13.57-160.7-11.59-160.97,2.01-.27,15.26,133.71,18.03,160.97,6.95,3.99,20.95,11.79,20.6,12.6Z"/>
</svg>