<?xml version="1.0" encoding="UTF-8"?>
<svg id="Layer_1" data-name="Layer 1" xmlns="http://www.w3.org/2000/svg" xmlns:xlink="http://www.w3.org/1999/xlink" viewBox="0 0 864.84 199.17">
  <defs>
    <style>
      .cls-1 {
        fill: #fff;
      }

      .cls-2 {
        fill: none;
      }

      .cls-3 {
        filter: url(#drop-shadow-13);
      }

      .cls-4 {
        fill: #b08453;
      }
    </style>
    <clipPath id="clippath">
      <rect class="cls-2" x="-7437.92" y="-4360.22" width="1245.05" height="2208"/>
    </clipPath>
    <filter id="drop-shadow-13" x="31.88" y="32.38" width="485.18" height="135.71" filterUnits="userSpaceOnUse">
      <feOffset dx="3.08" dy="3.08"/>
      <feGaussianBlur result="blur" stdDeviation="2.05"/>
      <feFlood flood-color="#000" flood-opacity=".35"/>
      <feComposite in2="blur" operator="in"/>
      <feComposite in="SourceGraphic"/>
    </filter>
  </defs>
  <g>
    <path class="cls-4" d="M538.96,32.38h32.46l16.35,63.21c4.04,14.84,6.76,28.53,10.87,43.5h.83c4.11-14.97,7-28.66,10.87-43.5l16.01-63.21h31.35l-40.91,135.65h-36.84l-40.99-135.65Z"/>
    <path class="cls-4" d="M672.19,32.38h30.67v135.65h-30.67V32.38Z"/>
    <path class="cls-4" d="M734.83,32.38h46.6c29.85,0,53.92,10.68,53.92,43.64s-24.34,45.99-53.09,45.99h-16.77v46.03h-30.67V32.38ZM780.45,97.65c16.86,0,24.84-7.52,24.84-21.64s-9.08-19.29-25.68-19.29h-14.12v40.93h14.96Z"/>
  </g>
  <path class="cls-4" d="M830.15,0H36.81C16.48,0,0,16.48,0,36.81v125.55c0,20.33,16.48,36.81,36.81,36.81h793.35c20.33,0,36.81-16.48,36.81-36.81V36.81c0-20.33-16.48-36.81-36.81-36.81ZM853.29,162.36c0,12.76-10.38,23.14-23.14,23.14H36.81c-12.76,0-23.14-10.38-23.14-23.14V36.81c0-12.76,10.38-23.14,23.14-23.14h793.35c12.76,0,23.14,10.38,23.14,23.14v125.55Z"/>
  <g class="cls-3">
    <path class="cls-1" d="M517.07,34.88c-.11.51-.27,1.02-.33,1.53-.44,4.43-.86,8.87-1.3,13.31,0,.09-.08.17-.19.42-2.83.22-5.76.06-8.68.09-2.99.03-5.98,0-8.97,0h-62.39c-3.01,33.28-5.99,66.43-8.99,99.77.63.05,1.14.11,1.65.12,3.63,0,7.25,0,10.88,0h66.35c-.62,6.06-1.21,11.88-1.81,17.79h-106.22c3.41-39.19,6.82-78.27,10.24-117.51-.5-.07-.91-.17-1.32-.17-9.66,0-19.31,0-28.97,0-.34,0-.67.06-1.22.11-4.06,39.15-8.06,78.31-12.1,117.41-1.18.31-29.9.37-31.7.06.48-6.5,1.3-13,1.92-19.51.62-6.53,1.34-13.06,2.02-19.59.68-6.53,1.35-13.06,2.03-19.59.67-6.48,1.35-12.96,2.01-19.44.67-6.53,1.34-13.06,2-19.59.66-6.52,1.32-13.04,1.97-19.39-.16-.23-.18-.27-.22-.3-.04-.03-.08-.07-.13-.07-.39-.04-.77-.11-1.16-.11-35.05,0-70.1.02-105.15.03-.14,0-.28.09-.59.19-3.22,33.07-6.45,66.21-9.69,99.52.7.05,1.3.13,1.91.14,13.04,0,26.08,0,39.12,0h1.94c1.84-17.55,3.67-34.97,5.48-52.27-.16-.16-.2-.19-.23-.22-.04-.03-.08-.06-.12-.07-.09-.02-.19-.04-.29-.05-.15-.01-.29-.01-.44-.01-10.88-.01-21.76-.02-32.65-.04-.04,0-.09-.03-.13-.05-.23-1.12.99-13.23,1.59-15.82,1.16-.29,63.5-.32,65.07,0-2.52,28.74-5.05,57.5-7.58,86.34h-107.18c4.18-45.16,8.35-90.21,12.52-135.34.46-.07.83-.15,1.2-.18.44-.03.88,0,1.32,0,102.06,0,204.12,0,306.19,0,.78,0,1.56.08,2.34.12v2.35Z"/>
    <path class="cls-1" d="M194.28,32.54c-.75-.07-1.13-.14-1.51-.14-12.79,0-25.59,0-38.38-.02-.89,0-1.43.33-1.93,1.04-1.55,2.21-3.2,4.34-4.72,6.57-.62.91-1.3,1.27-2.41,1.26-6.18-.05-12.35-.03-18.53-.03-11.03,0-22.06-.02-33.09.03-1.25,0-1.95-.38-2.54-1.47-1.14-2.11-2.45-4.13-3.62-6.22-.46-.81-.98-1.18-1.96-1.18-12.7.03-25.39.02-38.09.03-.41,0-.82.09-1.41.15.41.66.7,1.16,1.02,1.64,2.6,3.92,5.2,7.84,7.81,11.76,6.77,10.21,13.53,20.43,20.33,30.62.69,1.04.99,2.01.78,3.28-.34,2.07-.47,4.19-.68,6.28-.62,6.04-1.24,12.09-1.87,18.13-.76,7.26-1.54,14.52-2.28,21.78-.09.93-.42,1.65-1.07,2.32-5.2,5.33-10.38,10.69-15.57,16.04-7.24,7.46-14.47,14.92-21.71,22.38-.31.32-.58.69-.94,1.12,3.38.33,71.58.19,72.72-.16,1.23-11.69,2.47-23.42,3.72-35.3,1.16,0,2.2.13,3.19-.03,2.07-.32,3.23.58,4.38,2.27,7.33,10.78,14.78,21.48,22.19,32.21.46.67.89,1.14,1.85,1.14,12.21-.04,24.41-.02,36.62-.03.31,0,.62-.1,1.1-.18-14.62-22.18-29.14-44.23-43.69-66.31,20.09-22.97,40.08-45.84,60.32-68.98ZM143.06,127.55c.25.4.47.82.86,1.51-3.65.01-7.05,0-10.45,0-3.48,0-6.96,0-10.44,0h-20.77c-1.23,11.65-2.45,23.21-3.68,34.82h-26.85c4.06-38.63,8.11-77.13,12.16-115.71h91.4c-.26.39-.41.68-.62.9-7.73,8.07-15.47,16.13-23.18,24.21-.62.65-1.3.74-2.11.74-13.09-.01-26.17,0-39.26,0h-1.95c-1.04,9.92-2.06,19.65-3.11,29.59h1.72c6.57,0,13.14.02,19.7-.02,1.05,0,1.68.31,2.24,1.21,4.75,7.6,9.55,15.18,14.33,22.76Z"/>
  </g>
</svg>