<?xml version="1.0" encoding="UTF-8"?>
<svg id="Layer_1" data-name="Layer 1" xmlns="http://www.w3.org/2000/svg" xmlns:xlink="http://www.w3.org/1999/xlink" viewBox="0 0 171 171">
  <defs>
    <style>
      .cls-1 {
        stroke-linecap: round;
        stroke-linejoin: round;
        stroke-width: 4px;
      }

      .cls-1, .cls-2 {
        fill: none;
        stroke: #b28554;
      }

      .cls-2 {
        stroke-miterlimit: 10;
        stroke-width: 2.5px;
      }

      .cls-3 {
        fill: url(#radial-gradient);
      }

      .cls-4 {
        fill: url(#linear-gradient);
      }
    </style>
    <radialGradient id="radial-gradient" cx="85.5" cy="85.5" fx="85.5" fy="85.5" r="124.3" gradientUnits="userSpaceOnUse">
      <stop offset="0" stop-color="#050331"/>
      <stop offset=".15" stop-color="#090a34"/>
      <stop offset=".85" stop-color="#1b2842"/>
    </radialGradient>
    <linearGradient id="linear-gradient" x1="85.5" y1="0" x2="85.5" y2="171" gradientUnits="userSpaceOnUse">
      <stop offset="0" stop-color="#fff"/>
      <stop offset="1" stop-color="#231f20"/>
    </linearGradient>
  </defs>
  <g>
    <rect class="cls-3" y="0" width="171" height="171" rx="20" ry="20"/>
    <path class="cls-4" d="M151,3c9.37,0,17,7.63,17,17v131c0,9.37-7.63,17-17,17H20c-9.37,0-17-7.63-17-17V20C3,10.63,10.63,3,20,3h131M151,0H20C8.95,0,0,8.95,0,20v131C0,162.05,8.95,171,20,171h131c11.05,0,20-8.95,20-20V20c0-11.05-8.95-20-20-20h0Z"/>
  </g>
  <g>
    <g>
      <path class="cls-2" d="M110.07,98.83l14.38,23.71c.88,1.46-.35,3.28-2.03,3.01l-11.27-1.86-4.11,10.54c-.6,1.53-2.69,1.73-3.56.32l-13.6-22"/>
      <path class="cls-2" d="M80.96,112.32l-13.37,22.13c-.86,1.42-2.98,1.23-3.58-.32l-3.8-10.01-12.17,1.25c-1.61.17-2.74-1.55-1.94-2.96l13.42-23.9"/>
      <path class="cls-2" d="M125.6,75.36c.11,3.86-5.87,4.57-6.94,9.89-.98,4.87,3.29,7.81,1.62,10.46-1.74,2.76-6.66.03-10.2,3.11-3.98,3.46-1.13,9.78-4.54,11.73-2.98,1.7-5.91-2.71-10.8-1.51-5.2,1.28-5.83,7.25-9.46,7.12-3.49-.13-3.68-5.63-8.4-7.06-5-1.51-8.58,3.52-11.68,1.64-3.09-1.87-.27-7.34-3.81-10.94-3.69-3.75-9.79-.88-11.51-4-1.56-2.84,3.2-5.8,2.19-10.67-1.02-4.96-6.72-5.59-6.66-9.31.06-3.73,5.84-4.2,6.94-9.11,1.06-4.71-3.5-7.61-1.9-10.49,1.68-3.03,7.07-.45,10.63-3.94,3.82-3.76.9-10,4.04-11.7,2.84-1.54,5.79,3.25,10.56,2.25,5.09-1.06,5.69-7.35,9.5-7.34,3.77,0,4.3,6.17,9.36,7.34,5.05,1.17,8.58-4.04,11.38-2.3,2.67,1.65-.13,6.61,2.94,10.29,3.48,4.17,10.24,1.57,11.81,4.93,1.34,2.88-3.33,5.45-2.52,9.97.9,5.04,7.35,5.62,7.47,9.63Z"/>
      <circle class="cls-2" cx="85.26" cy="75.93" r="23.4"/>
    </g>
    <polyline class="cls-1" points="73.61 73.74 82.31 82.02 96.87 68.04"/>
  </g>
</svg>