<?xml version="1.0" encoding="UTF-8"?>
<svg id="Layer_1" data-name="Layer 1" xmlns="http://www.w3.org/2000/svg" xmlns:xlink="http://www.w3.org/1999/xlink" viewBox="0 0 171 171">
  <defs>
    <style>
      .cls-1 {
        fill: url(#radial-gradient);
      }

      .cls-2 {
        fill: none;
        stroke: #b28554;
        stroke-linejoin: round;
        stroke-width: 2.5px;
      }

      .cls-3 {
        fill: url(#linear-gradient);
      }
    </style>
    <radialGradient id="radial-gradient" cx="85.5" cy="85.5" fx="85.5" fy="85.5" r="124.3" gradientUnits="userSpaceOnUse">
      <stop offset="0" stop-color="#050331"/>
      <stop offset=".15" stop-color="#090a34"/>
      <stop offset=".85" stop-color="#1b2842"/>
    </radialGradient>
    <linearGradient id="linear-gradient" x1="85.5" y1="0" x2="85.5" y2="171" gradientUnits="userSpaceOnUse">
      <stop offset="0" stop-color="#fff"/>
      <stop offset="1" stop-color="#231f20"/>
    </linearGradient>
  </defs>
  <g>
    <rect class="cls-1" y="0" width="171" height="171" rx="20" ry="20"/>
    <path class="cls-3" d="M151,3c9.37,0,17,7.63,17,17v131c0,9.37-7.63,17-17,17H20c-9.37,0-17-7.63-17-17V20C3,10.63,10.63,3,20,3h131M151,0H20C8.95,0,0,8.95,0,20v131C0,162.05,8.95,171,20,171h131c11.05,0,20-8.95,20-20V20c0-11.05-8.95-20-20-20h0Z"/>
  </g>
  <path class="cls-2" d="M129.21,49.43c-.25-2.15-2.52-3.84-5.15-3.84h-6.06c.12-1.67.2-3.36.23-5.06,1.09-.3,1.88-1.29,1.88-2.47h0c0-1.41-1.15-2.56-2.56-2.56H53.45c-1.41,0-2.56,1.15-2.56,2.56h0c0,1.18.8,2.17,1.88,2.47.03,1.71.11,3.4.23,5.06h-6.06c-2.64,0-4.9,1.69-5.15,3.84-1.2,10.24.98,18.61,6.46,24.88,4.27,4.88,10.48,8.37,18.53,10.44,3.46,4.14,7.4,7.16,11.65,8.77v8.23c0,6.15-4.99,11.14-11.14,11.14h0c-.68,0-1.24.55-1.24,1.24v5.04h-1.48c-4.13,0-7.48,3.35-7.48,7.48v7.83c0,.57.46,1.03,1.03,1.03h54.73c.57,0,1.03-.46,1.03-1.03v-7.83c0-4.13-3.35-7.48-7.48-7.48h-1.48v-5.04c0-.68-.55-1.24-1.24-1.24h0c-6.15,0-11.14-4.99-11.14-11.14v-8.23c4.25-1.6,8.2-4.63,11.65-8.77,8.05-2.07,14.25-5.56,18.53-10.44,5.49-6.27,7.66-14.64,6.46-24.88ZM108.22,79.1c4.69-7.77,8.04-17.92,9.38-29.31h6.46c.51,0,.87.19,1.01.31,1.01,8.94-.83,16.15-5.47,21.46-2.79,3.19-6.59,5.71-11.37,7.55ZM51.41,71.55c-4.65-5.3-6.49-12.52-5.47-21.46.14-.11.5-.31,1.01-.31h6.46c1.34,11.4,4.68,21.55,9.38,29.31-4.78-1.84-8.58-4.36-11.37-7.55ZM93.34,73.59l-5.74-3.51-2.1-1.28-2.1,1.28-5.74,3.51,2.14-8.93-6.98-5.97,9.16-.72,1.42-3.43,2.1-5.05h0s2.1,5.05,2.1,5.05l1.42,3.43,9.16.72-6.98,5.97,2.14,8.93Z"/>
</svg>