<?xml version="1.0" encoding="UTF-8"?>
<svg id="Layer_1" data-name="Layer 1" xmlns="http://www.w3.org/2000/svg" xmlns:xlink="http://www.w3.org/1999/xlink" viewBox="0 0 171 171">
  <defs>
    <style>
      .cls-1 {
        fill: none;
        stroke: #b28554;
        stroke-miterlimit: 10;
        stroke-width: 2.5px;
      }

      .cls-2 {
        fill: url(#radial-gradient);
      }

      .cls-3 {
        fill: #b28554;
      }

      .cls-4 {
        fill: url(#linear-gradient);
      }
    </style>
    <radialGradient id="radial-gradient" cx="85.5" cy="85.5" fx="85.5" fy="85.5" r="124.3" gradientUnits="userSpaceOnUse">
      <stop offset="0" stop-color="#050331"/>
      <stop offset=".15" stop-color="#090a34"/>
      <stop offset=".85" stop-color="#1b2842"/>
    </radialGradient>
    <linearGradient id="linear-gradient" x1="85.5" y1="0" x2="85.5" y2="171" gradientUnits="userSpaceOnUse">
      <stop offset="0" stop-color="#fff"/>
      <stop offset="1" stop-color="#231f20"/>
    </linearGradient>
  </defs>
  <g>
    <rect class="cls-2" y="0" width="171" height="171" rx="20" ry="20"/>
    <path class="cls-4" d="M151,3c9.37,0,17,7.63,17,17v131c0,9.37-7.63,17-17,17H20c-9.37,0-17-7.63-17-17V20C3,10.63,10.63,3,20,3h131M151,0H20C8.95,0,0,8.95,0,20v131c0,11.05,8.95,20,20,20h131c11.05,0,20-8.95,20-20V20c0-11.05-8.95-20-20-20h0Z"/>
  </g>
  <g>
    <path class="cls-1" d="M142.89,86.95l-17.29-21.3c-3.32-4.09-8.31-6.47-13.59-6.47-10.11,0-17.96,8.53-17.4,18.48-2.15-1.33-4.67-2.14-7.38-2.14-2.03,0-3.95.45-5.7,1.23.04-9.55-7.6-17.57-17.4-17.57-5.27,0-10.27,2.38-13.59,6.47l-17.29,21.29c-4.91,4.86-7.96,11.6-7.96,19.04,0,14.78,12.02,26.8,26.8,26.8,12.11,0,22.35-8.07,25.67-19.11,2.51,2.3,5.81,3.73,9.47,3.73,4.35,0,8.2-2.03,10.79-5.14,2.84,11.75,13.42,20.52,26.03,20.52,14.78,0,26.8-12.02,26.8-26.8,0-7.44-3.05-14.17-7.96-19.03ZM52.1,126.84c-11.5,0-20.86-9.36-20.86-20.86s9.36-20.86,20.86-20.86,20.86,9.36,20.86,20.86-9.36,20.86-20.86,20.86ZM87.24,110.65c-4.05,0-7.34-3.29-7.34-7.34s3.29-7.34,7.34-7.34,7.34,3.3,7.34,7.34-3.29,7.34-7.34,7.34ZM124.05,126.84c-11.5,0-20.86-9.36-20.86-20.86s9.36-20.86,20.86-20.86,20.86,9.36,20.86,20.86-9.36,20.86-20.86,20.86Z"/>
    <path class="cls-1" d="M88.08,49.03c2.17,0,3.92-1.76,3.92-3.92v-8.41c0-2.17-1.75-3.92-3.92-3.92s-3.92,1.76-3.92,3.92v8.41c0,2.17,1.75,3.92,3.92,3.92Z"/>
    <path class="cls-1" d="M102.28,52.45c.57.29,1.18.43,1.78.43,1.43,0,2.81-.78,3.5-2.14l3.81-7.49c.98-1.93.22-4.29-1.71-5.28-1.94-.99-4.3-.21-5.27,1.71l-3.82,7.49c-.98,1.93-.22,4.29,1.71,5.28Z"/>
    <path class="cls-1" d="M68.59,50.67c.69,1.36,2.07,2.14,3.5,2.14.6,0,1.21-.14,1.78-.43,1.93-.98,2.7-3.35,1.71-5.28l-3.82-7.49c-.98-1.93-3.34-2.71-5.28-1.71-1.93.98-2.7,3.35-1.71,5.28l3.82,7.49Z"/>
    <path class="cls-3" d="M51.26,120.12v-3.26l-1.65-.29c-1.91-.33-3.42-1.77-3.88-3.59h1.76c.48,1.19,1.65,2.01,2.97,2.01h2.57c2.17,0,4.02-1.61,4.23-3.66.12-1.16-.24-2.29-1.03-3.16-.78-.86-1.88-1.35-3.03-1.35h-1.89c-3.11,0-5.76-2.28-6.05-5.18-.28-2.89,1.63-5.55,4.45-6.2l1.55-.36v-3.24h1.68v3.26l1.65.29c1.91.34,3.42,1.77,3.88,3.59h-1.76c-.48-1.19-1.66-2.01-2.97-2.01h-2.57c-2.17,0-4.03,1.61-4.23,3.67-.13,1.15.24,2.28,1.03,3.15.77.86,1.88,1.35,3.03,1.35h2.2c1.62,0,3.18.69,4.27,1.9,1.11,1.22,1.63,2.8,1.46,4.45-.23,2.32-2.07,4.37-4.49,4.98l-1.51.38v3.26h-1.68Z"/>
    <path class="cls-3" d="M123.21,120.12v-3.26l-1.65-.29c-1.91-.33-3.42-1.77-3.88-3.59h1.76c.48,1.19,1.65,2.01,2.97,2.01h2.57c2.17,0,4.02-1.61,4.23-3.66.12-1.16-.24-2.29-1.03-3.16-.78-.86-1.88-1.35-3.03-1.35h-1.89c-3.11,0-5.76-2.28-6.05-5.18-.28-2.89,1.63-5.55,4.45-6.2l1.55-.36v-3.24h1.68v3.26l1.65.29c1.91.34,3.42,1.77,3.88,3.59h-1.76c-.48-1.19-1.66-2.01-2.97-2.01h-2.57c-2.17,0-4.03,1.61-4.23,3.67-.13,1.15.24,2.28,1.03,3.15.77.86,1.88,1.35,3.03,1.35h2.2c1.62,0,3.18.69,4.27,1.9,1.11,1.22,1.63,2.8,1.46,4.45-.23,2.32-2.07,4.37-4.49,4.98l-1.51.38v3.26h-1.68Z"/>
  </g>
</svg>