<?xml version="1.0" encoding="UTF-8"?>
<svg id="Layer_1" data-name="Layer 1" xmlns="http://www.w3.org/2000/svg" xmlns:xlink="http://www.w3.org/1999/xlink" viewBox="0 0 171 171">
  <defs>
    <style>
      .cls-1 {
        fill: url(#radial-gradient);
      }

      .cls-2 {
        fill: #b28554;
        fill-rule: evenodd;
      }

      .cls-3 {
        fill: url(#linear-gradient);
      }
    </style>
    <radialGradient id="radial-gradient" cx="85.5" cy="85.5" fx="85.5" fy="85.5" r="124.3" gradientUnits="userSpaceOnUse">
      <stop offset="0" stop-color="#050331"/>
      <stop offset=".15" stop-color="#090a34"/>
      <stop offset=".85" stop-color="#1b2842"/>
    </radialGradient>
    <linearGradient id="linear-gradient" x1="85.5" y1="0" x2="85.5" y2="171" gradientUnits="userSpaceOnUse">
      <stop offset="0" stop-color="#fff"/>
      <stop offset="1" stop-color="#231f20"/>
    </linearGradient>
  </defs>
  <g>
    <rect class="cls-1" width="171" height="171" rx="20" ry="20"/>
    <path class="cls-3" d="M151,3c9.37,0,17,7.63,17,17v131c0,9.37-7.63,17-17,17H20c-9.37,0-17-7.63-17-17V20C3,10.63,10.63,3,20,3h131M151,0H20C8.95,0,0,8.95,0,20v131C0,162.05,8.95,171,20,171h131c11.05,0,20-8.95,20-20V20C171,8.95,162.05,0,151,0h0Z"/>
  </g>
  <path class="cls-2" d="M110.93,120.26l-2.58.48c-.48.09-.88.45-1.03.93-.21.69-.49,1.36-.83,2-.24.44-.21.97.07,1.39l1.49,2.16-2.72,2.72-2.17-1.48c-.41-.28-.94-.31-1.39-.08-.64.34-1.31.62-2,.83-.47.15-.84.55-.93,1.04l-.47,2.58h-3.85l-.48-2.58c-.09-.49-.45-.89-.93-1.04-.68-.21-1.36-.49-2-.83-.44-.23-.98-.2-1.39.08l-2.16,1.48-2.73-2.72,1.49-2.16c.28-.41.31-.95.07-1.39-.34-.64-.62-1.31-.83-2-.15-.48-.54-.83-1.03-.93l-2.58-.48v-3.85l2.58-.48c.49-.09.88-.45,1.03-.92.22-.69.49-1.36.83-2,.24-.44.21-.98-.07-1.39l-1.49-2.16,2.73-2.72,2.16,1.48c.41.28.95.31,1.39.08.64-.34,1.31-.62,2-.83.48-.15.84-.55.93-1.04l.48-2.58h3.85l.47,2.58c.09.49.46.89.93,1.04.68.21,1.36.49,2,.83.45.23.98.2,1.39-.08l2.17-1.48,2.72,2.72-1.49,2.16c-.28.41-.31.95-.07,1.39.34.64.62,1.31.83,2,.15.48.55.83,1.03.92l2.58.48v3.85h0ZM30.62,108.68c0-3.54,2.16-6.59,5.5-7.76l12.04-4.23v11.86c0,.5.28.96.73,1.19.19.1.4.15.61.15.27,0,.55-.09.78-.26l5.14-3.72.98,4.09-2.22,13.81h-12.3v-7.91c0-.74-.6-1.34-1.34-1.34s-1.34.6-1.34,1.34v7.91h-8.6v-15.13h0ZM53.97,94.64l-3.14,1.1v10.18l9.31-6.74-6.17-4.55h0ZM62.41,90.1c-2.46,0-4.79-.56-6.88-1.57v3.94l6.88,5.07,6.88-5.07v-3.94c-2.08,1-4.42,1.57-6.88,1.57h0ZM49.18,74.18v-.94c0-1.18.15-2.35.46-3.48h3.32c5.9,0,11.35-3.2,14.27-8.36.46-.61,1.19-1.31,2.07-1.31s2.47,1.35,4.16,5.14c1.38,3.11,2.21,6.51,2.21,8.01v.94c0,7.3-5.94,13.24-13.25,13.24s-13.24-5.94-13.24-13.24h0ZM47.44,67.85c.22-.47.68-.78,1.21-.78h4.3c4.95,0,9.53-2.71,11.97-7.07.03-.05.06-.1.09-.15,1.18-1.58,2.7-2.45,4.28-2.45,2.98,0,5.24,3.66,6.6,6.73.53,1.19,1,2.47,1.39,3.71h.26c.66,0,1.29.1,1.89.3.85-1.23,1.43-2.75,1.66-4.38.48-3.57-.8-7.32-3.61-10.54-3.58-4.09-9.15-6.74-14.19-6.74h-1.73c-5.04,0-10.61,2.65-14.18,6.74-2.82,3.22-4.1,6.97-3.62,10.54.23,1.63.81,3.15,1.67,4.38.59-.19,1.22-.3,1.88-.3h.15ZM43.83,73.99c0-1.71,1.26-3.13,2.89-3.41-.15.87-.22,1.76-.22,2.66v.94c0,1.11.11,2.19.33,3.24-1.69-.23-3-1.68-3-3.43h0ZM78,77.41c.22-1.04.34-2.13.34-3.24v-.94c0-.72-.13-1.64-.35-2.67,1.7.23,3.01,1.67,3.01,3.43s-1.31,3.2-3,3.43h0ZM74,95.75v10.18l-9.32-6.74,6.17-4.55,3.14,1.1h0ZM58.91,111.29h7l2.01,12.52h-11.03l2.01-12.52h0ZM62.41,100.85l4.65,3.37-1.06,4.39h-7.17l-1.07-4.39,4.65-3.37h0ZM91.97,102.99c-.88-.92-2-1.64-3.25-2.08l-12.03-4.23v11.86c0,.5-.29.96-.74,1.19-.19.1-.4.15-.6.15-.28,0-.56-.09-.79-.26l-5.14-3.72-.98,4.09,2.22,13.81h12.89c-.08-.19-.16-.38-.24-.58l-2.9-.54c-.63-.12-1.09-.67-1.09-1.32v-6.07c0-.65.46-1.2,1.09-1.32l2.9-.54c.13-.32.26-.64.4-.96l-1.67-2.43c-.36-.53-.3-1.25.15-1.7l4.29-4.29c.46-.46,1.18-.52,1.7-.16l2.43,1.67c.31-.14.63-.28.96-.4l.4-2.18h0ZM112.52,113.99l-2.9-.54c-.12-.32-.26-.64-.39-.96l1.67-2.43c.36-.53.29-1.25-.16-1.7l-4.29-4.29c-.46-.46-1.17-.52-1.7-.16l-2.43,1.67c-.31-.14-.63-.28-.96-.4l-.54-2.9c-.12-.63-.67-1.09-1.31-1.09h-5.55c-1.19-1.25-2.67-2.2-4.34-2.79l-17.63-6.19v-5.3c2.3-1.73,4.11-4.07,5.2-6.77h.36c3.38,0,6.14-2.75,6.14-6.14,0-1.76-.76-3.35-1.95-4.48,1.04-1.55,1.73-3.41,2.01-5.39.59-4.35-.92-8.85-4.25-12.66-4.13-4.72-10.34-7.66-16.21-7.66h-1.73c-5.87,0-12.08,2.93-16.21,7.66-3.33,3.81-4.84,8.31-4.25,12.66.27,1.98.97,3.84,2.01,5.39-1.19,1.12-1.94,2.71-1.94,4.48,0,3.39,2.75,6.14,6.13,6.14h.36c1.09,2.7,2.9,5.04,5.2,6.77v5.3l-17.62,6.19c-4.43,1.56-7.29,5.59-7.29,10.29v16.47c0,.74.6,1.34,1.34,1.34h52.83l-.09.13c-.36.53-.3,1.25.15,1.7l4.29,4.29c.46.46,1.18.52,1.7.16l2.43-1.67c.31.14.63.28.96.4l.54,2.9c.12.63.67,1.09,1.32,1.09h6.07c.64,0,1.19-.46,1.31-1.09l.54-2.9c.33-.12.65-.25.96-.4l2.43,1.67c.54.37,1.25.3,1.7-.16l4.29-4.29c.46-.46.53-1.17.16-1.7l-1.67-2.43c.14-.31.27-.63.39-.96l2.9-.54c.64-.12,1.09-.67,1.09-1.32v-6.07c0-.65-.46-1.2-1.09-1.32h0ZM96.46,123.66c2.94,0,5.32-2.39,5.32-5.32s-2.39-5.33-5.32-5.33-5.33,2.39-5.33,5.33,2.4,5.32,5.33,5.32h0ZM96.46,110.34c-4.41,0-8,3.59-8,8s3.59,8,8,8,8-3.59,8-8-3.59-8-8-8ZM139.06,35.5h-43.93c-2.26.3-4,2.24-4,4.58v34.22c0,2.55,2.07,4.62,4.62,4.62h6.84v5.4c0,.52.3.99.77,1.21.18.09.38.13.57.13.3,0,.6-.1.85-.3l7.88-6.44h25.78c2.54,0,4.62-2.07,4.62-4.62v-34.22c0-2.34-1.75-4.28-4-4.58h0ZM99.58,55.06c-.34-.66-.08-1.46.58-1.8l7.76-3.97c.19-.1.4-.15.61-.15h13.08l11.01-8.2c.59-.44,1.43-.32,1.88.27.44.59.32,1.43-.27,1.87l-11.37,8.47c-.23.17-.51.27-.8.27h-13.2l-7.47,3.82c-.19.1-.4.15-.61.15-.49,0-.96-.27-1.19-.73h0ZM102.11,63.29h3.86v7.26h-3.86v-7.26h0ZM115.16,59.96h3.86v10.6h-3.86v-10.6h0ZM128.22,56.63h3.86v13.93h-3.86v-13.93h0ZM136.04,70.55c.74,0,1.33.6,1.33,1.34s-.59,1.34-1.33,1.34h-37.89c-.74,0-1.34-.6-1.34-1.34s.6-1.34,1.34-1.34h1.28v-8.6c0-.74.6-1.34,1.34-1.34h6.54c.74,0,1.34.6,1.34,1.34v8.6h3.84v-11.94c0-.74.6-1.34,1.34-1.34h6.54c.74,0,1.34.6,1.34,1.34v11.94h3.84v-15.27c0-.74.6-1.34,1.34-1.34h6.54c.74,0,1.34.6,1.34,1.34v15.27h1.29ZM140.38,74.3c0,1.07-.88,1.94-1.94,1.94h-26.25c-.31,0-.61.11-.85.3l-6.07,4.95v-3.92c0-.74-.6-1.34-1.34-1.34h-8.18c-1.07,0-1.94-.87-1.94-1.94v-34.22c0-1.07.87-1.94,1.94-1.94h42.69c1.07,0,1.94.87,1.94,1.94v34.22Z"/>
</svg>