<?xml version="1.0" encoding="UTF-8"?>
<svg id="Layer_1" data-name="Layer 1" xmlns="http://www.w3.org/2000/svg" xmlns:xlink="http://www.w3.org/1999/xlink" viewBox="0 0 171 171">
  <defs>
    <style>
      .cls-1 {
        stroke-linejoin: round;
      }

      .cls-1, .cls-2 {
        stroke-linecap: round;
      }

      .cls-1, .cls-2, .cls-3 {
        fill: none;
        stroke: #b28554;
        stroke-width: 3px;
      }

      .cls-4 {
        fill: url(#radial-gradient);
      }

      .cls-2, .cls-3 {
        stroke-miterlimit: 10;
      }

      .cls-5 {
        fill: url(#linear-gradient);
      }
    </style>
    <radialGradient id="radial-gradient" cx="85.5" cy="85.5" fx="85.5" fy="85.5" r="124.3" gradientUnits="userSpaceOnUse">
      <stop offset="0" stop-color="#050331"/>
      <stop offset=".15" stop-color="#090a34"/>
      <stop offset=".85" stop-color="#1b2842"/>
    </radialGradient>
    <linearGradient id="linear-gradient" x1="85.5" y1="0" x2="85.5" y2="171" gradientUnits="userSpaceOnUse">
      <stop offset="0" stop-color="#fff"/>
      <stop offset="1" stop-color="#231f20"/>
    </linearGradient>
  </defs>
  <g>
    <rect class="cls-4" width="171" height="171" rx="20" ry="20"/>
    <path class="cls-5" d="M151,3c9.37,0,17,7.63,17,17v131c0,9.37-7.63,17-17,17H20c-9.37,0-17-7.63-17-17V20C3,10.63,10.63,3,20,3h131M151,0H20C8.95,0,0,8.95,0,20v131C0,162.05,8.95,171,20,171h131c11.05,0,20-8.95,20-20V20C171,8.95,162.05,0,151,0h0Z"/>
  </g>
  <g>
    <path class="cls-3" d="M102.18,35.5h-23.98c-10.24,0-18.53,8.3-18.53,18.53h0c0,10.24,8.3,18.53,18.53,18.53h4.14c.43,0,.78.35.78.78v8.41c0,.7.84,1.05,1.34.55l9.52-9.52c.15-.15.35-.23.55-.23h7.64c10.24,0,18.53-8.3,18.53-18.53h0c0-10.24-8.3-18.53-18.53-18.53Z"/>
    <path class="cls-2" d="M62.75,89.46h52.63c1.16,0,1.99,1.12,1.66,2.23l-8.24,27.48h-37.13l-12.25-40.36c-.22-.73-.89-1.23-1.66-1.23h-7.46"/>
    <path class="cls-3" d="M79.08,130.3c0,2.87-2.33,5.2-5.2,5.2s-5.2-2.33-5.2-5.2,2.33-5.2,5.2-5.2,5.2,2.33,5.2,5.2Z"/>
    <path class="cls-3" d="M111.01,130.3c0,2.87-2.33,5.2-5.2,5.2s-5.2-2.33-5.2-5.2,2.33-5.2,5.2-5.2,5.2,2.33,5.2,5.2Z"/>
    <line class="cls-2" x1="85.45" y1="126.59" x2="94.26" y2="126.59"/>
    <line class="cls-3" x1="65.65" y1="99.39" x2="114.72" y2="99.39"/>
    <line class="cls-3" x1="68.69" y1="109.43" x2="111.75" y2="109.43"/>
    <path class="cls-2" d="M98.82,54.68h4.56c2.37,0,4.32-1.94,4.32-4.32h0c0-2.37-1.94-4.32-4.32-4.32h-4.56v16.52"/>
    <line class="cls-2" x1="91" y1="46.05" x2="91" y2="62.57"/>
    <polyline class="cls-1" points="72.67 46.05 78.97 62.57 84.89 46.05"/>
  </g>
</svg>