<?xml version="1.0" encoding="UTF-8"?>
<svg id="Layer_1" data-name="Layer 1" xmlns="http://www.w3.org/2000/svg" xmlns:xlink="http://www.w3.org/1999/xlink" viewBox="0 0 171 171">
  <defs>
    <style>
      .cls-1 {
        fill: url(#radial-gradient);
      }

      .cls-2 {
        fill: #b28554;
        fill-rule: evenodd;
      }

      .cls-3 {
        fill: url(#linear-gradient);
      }
    </style>
    <radialGradient id="radial-gradient" cx="85.5" cy="85.5" fx="85.5" fy="85.5" r="124.3" gradientUnits="userSpaceOnUse">
      <stop offset="0" stop-color="#050331"/>
      <stop offset=".15" stop-color="#090a34"/>
      <stop offset=".85" stop-color="#1b2842"/>
    </radialGradient>
    <linearGradient id="linear-gradient" x1="85.5" y1="0" x2="85.5" y2="171" gradientUnits="userSpaceOnUse">
      <stop offset="0" stop-color="#fff"/>
      <stop offset="1" stop-color="#231f20"/>
    </linearGradient>
  </defs>
  <g>
    <rect class="cls-1" width="171" height="171" rx="20" ry="20"/>
    <path class="cls-3" d="M151,3c9.37,0,17,7.63,17,17v131c0,9.37-7.63,17-17,17H20c-9.37,0-17-7.63-17-17V20C3,10.63,10.63,3,20,3h131M151,0H20C8.95,0,0,8.95,0,20v131c0,11.05,8.95,20,20,20h131c11.05,0,20-8.95,20-20V20C171,8.95,162.05,0,151,0h0Z"/>
  </g>
  <path class="cls-2" d="M117.08,58.32c-1.67,0-3.02-1.35-3.02-3.02s1.35-3.02,3.02-3.02,3.02,1.35,3.02,3.02-1.36,3.02-3.02,3.02h0ZM117.08,49.6c-3.15,0-5.71,2.56-5.71,5.7s2.56,5.7,5.71,5.7,5.7-2.56,5.7-5.7-2.56-5.7-5.7-5.7h0ZM126.67,61.83l.85-1.48-2.08-1.8c-.38-.33-.54-.84-.43-1.33.15-.62.23-1.27.23-1.91s-.08-1.29-.23-1.92c-.12-.49.05-1,.43-1.33l2.08-1.8-.85-1.48-2.6.9c-.47.16-1,.05-1.36-.3-.94-.89-2.08-1.55-3.31-1.92-.48-.14-.84-.54-.94-1.03l-.52-2.7h-1.71l-.52,2.7c-.09.49-.46.89-.94,1.03-1.23.36-2.38,1.03-3.31,1.91-.36.35-.89.46-1.36.3l-2.6-.9-.85,1.48,2.08,1.8c.38.33.54.84.43,1.33-.15.62-.23,1.27-.23,1.92s.08,1.29.23,1.91c.12.49-.05,1-.43,1.33l-2.08,1.8.85,1.48,2.6-.9c.47-.16,1-.05,1.36.3.94.89,2.08,1.55,3.31,1.91.48.14.84.54.94,1.03l.52,2.7h1.71l.52-2.7c.1-.49.46-.89.94-1.03,1.23-.36,2.38-1.03,3.31-1.91.36-.35.89-.46,1.36-.3l2.6.9h0ZM127.8,57.03c.09-.57.14-1.15.14-1.73s-.04-1.16-.14-1.73l2.32-2.02c.49-.42.6-1.13.28-1.68l-1.96-3.4c-.32-.56-.99-.81-1.6-.6l-2.91,1.01c-.9-.73-1.91-1.32-2.99-1.73l-.59-3.02c-.12-.63-.68-1.09-1.32-1.09h-3.92c-.64,0-1.2.46-1.32,1.09l-.59,3.02c-1.08.41-2.09,1-2.99,1.73l-2.91-1c-.61-.21-1.28.04-1.6.6l-1.96,3.4c-.32.56-.2,1.26.28,1.68l2.33,2.02c-.09.57-.14,1.15-.14,1.73s.05,1.16.14,1.73l-2.33,2.02c-.49.42-.6,1.13-.28,1.68l1.96,3.4c.32.56.99.81,1.6.6l2.91-1.01c.9.73,1.91,1.32,2.99,1.73l.59,3.02c.12.63.67,1.09,1.32,1.09h3.92c.64,0,1.19-.46,1.32-1.09l.59-3.02c1.08-.41,2.09-1,2.99-1.73l2.91,1.01c.61.21,1.28-.04,1.6-.6l1.96-3.4c.32-.56.2-1.26-.28-1.68l-2.32-2.02h0ZM136.73,69.27v-27.93c0-1.74-1.41-3.15-3.15-3.15h-33.01c-1.74,0-3.15,1.41-3.15,3.15v27.93c0,1.74,1.41,3.15,3.15,3.15h2.59c.4,0,.79.18,1.04.5.25.31.36.73.27,1.12l-.85,4.03,7.02-5.37c.23-.18.52-.28.81-.28h22.13c1.74,0,3.15-1.41,3.15-3.15h0ZM133.58,35.5h-33.01c-3.22,0-5.83,2.62-5.83,5.83v27.93c0,3.22,2.62,5.83,5.83,5.83h.93l-1.26,5.96c-.12.55.12,1.11.6,1.41.22.14.47.21.72.21.29,0,.57-.09.81-.28l9.54-7.3h21.68c3.22,0,5.83-2.62,5.83-5.83v-27.93c0-3.22-2.62-5.83-5.83-5.83h0ZM102.08,132.81h-10.16v-8.71c0-.74-.6-1.34-1.34-1.34s-1.34.6-1.34,1.34v8.71h-13.27v-14.81c0-.27-.08-.54-.24-.76l-2.83-4.11,1.69-2.63,2.43,1.96c.24.19.54.3.84.3.08,0,.16,0,.25-.02.38-.07.72-.31.92-.65l6.02-10.42,14.77,7.81c1.44.76,2.27,2.13,2.27,3.76v19.59h0ZM34.27,113.23c0-1.63.83-3,2.26-3.76l14.77-7.81,6.02,10.42c.2.34.53.58.92.65.08.01.16.02.25.02.31,0,.6-.1.84-.3l2.42-1.96,1.69,2.63-2.83,4.11c-.15.22-.24.49-.24.76v14.81h-13.27v-8.71c0-.74-.6-1.34-1.34-1.34s-1.34.6-1.34,1.34v8.71h-10.15v-19.59h0ZM59.95,97.09l-6.27,3.31,5.19,8.98,7.32-5.9-6.24-6.39h0ZM67.02,92.78c-1.94,0-3.78-.38-5.47-1.07v3.17l6.63,6.79,6.63-6.79v-3.17c-1.69.69-3.54,1.07-5.47,1.07h-2.31ZM55.09,78.17v-9.05l6.5-4.83c2.55,4.4,7.91,7.35,13.64,7.35,2.15,0,4.18-.44,6.04-1.3v7.83c0,6.58-5.35,11.93-11.93,11.93h-2.31c-6.58,0-11.93-5.35-11.93-11.93h0ZM55.22,55.7c-2.25,2.39-2.68,7.65-1.12,10.81l7.18-5.34c.23-.18.52-.27.8-.27.12,0,.25.02.37.05.4.11.73.41.88.79,1.7,4.24,6.59,7.21,11.9,7.21,5.74,0,10.46-4,11.97-9.92-.25.02-.5.03-.75.03-4.2,0-6.33-1.97-8.2-3.7-1.94-1.8-3.62-3.35-7.62-3.35-3.23,0-6.22,1.39-7.81,3.61-.21.29-.52.49-.87.55-.35.06-.71-.02-1-.23-2.36-1.69-4.28-1.76-5.72-.23h0ZM70.56,111.81h-4.77l-1.93-3.01,4.32-3.48,4.32,3.48-1.94,3.01h0ZM73.28,132.81v-14.4l-2.7-3.92h-4.82l-2.7,3.92v14.4h10.22ZM82.67,100.4l-6.27-3.31-6.24,6.39,7.32,5.9,5.18-8.98h0ZM101.07,107.09c2.31,1.22,3.7,3.52,3.7,6.13v20.93c0,.74-.6,1.34-1.34,1.34H32.93c-.74,0-1.34-.6-1.34-1.34v-20.93c0-2.62,1.38-4.91,3.69-6.13l23.59-12.47v-4.34c-3.89-2.63-6.46-7.08-6.46-12.12v-9.28c-2.88-4.05-2.51-11.45.86-15.03,1.05-1.12,3.86-3.29,8.18-.8,2.18-2.33,5.58-3.74,9.18-3.74,5.05,0,7.38,2.16,9.44,4.07,1.8,1.67,3.23,2.99,6.38,2.99.71,0,1.42-.09,2.1-.26.43-.11.9,0,1.23.3.33.3.5.74.44,1.18-.52,3.82-2.23,7.32-4.8,9.87-.47.46-.95.88-1.46,1.26v9.45c0,5.04-2.57,9.49-6.46,12.12v4.34l23.58,12.47Z"/>
</svg>